JosefinSlab-SemiBold_ik.ufo
<glyph name="dollar" format="1">
  <advance width="568"/>
  <unicode hex="0024"/>
  <outline>
    <contour>
      <point x="400" y="546" type="line"/>
      <point x="400" y="616" type="line"/>
      <point x="377" y="621"/>
      <point x="334" y="628"/>
      <point x="314" y="629" type="qcurve"/>
      <point x="314" y="425" type="line"/>
      <point x="351" y="411"/>
      <point x="428" y="378"/>
      <point x="489" y="327"/>
      <point x="528" y="254"/>
      <point x="528" y="201" type="qcurve"/>
      <point x="528" y="118"/>
      <point x="423" y="6"/>
      <point x="314" y="-5" type="qcurve"/>
      <point x="314" y="-68" type="line"/>
      <point x="251" y="-68" type="line"/>
      <point x="251" y="-8" type="line"/>
      <point x="210" y="-7"/>
      <point x="146" y="6"/>
      <point x="96" y="25"/>
      <point x="59" y="49"/>
      <point x="44" y="60" type="qcurve"/>
      <point x="43" y="60" type="line"/>
      <point x="43" y="192" type="line"/>
      <point x="145" y="192" type="line"/>
      <point x="145" y="124" type="line"/>
      <point x="200" y="98"/>
      <point x="251" y="98" type="qcurve"/>
      <point x="251" y="342" type="line"/>
      <point x="215" y="355"/>
      <point x="146" y="386"/>
      <point x="92" y="429"/>
      <point x="58" y="488"/>
      <point x="58" y="530" type="qcurve"/>
      <point x="58" y="563"/>
      <point x="82" y="628"/>
      <point x="131" y="682"/>
      <point x="203" y="720"/>
      <point x="251" y="726" type="qcurve"/>
      <point x="251" y="792" type="line"/>
      <point x="314" y="792" type="line"/>
      <point x="314" y="728" type="line"/>
      <point x="347" y="726"/>
      <point x="411" y="714"/>
      <point x="462" y="700"/>
      <point x="497" y="687"/>
      <point x="502" y="685" type="qcurve"/>
      <point x="502" y="546" type="line"/>
    </contour>
    <contour>
      <point x="420" y="207" type="qcurve"/>
      <point x="420" y="228"/>
      <point x="403" y="260"/>
      <point x="375" y="286"/>
      <point x="336" y="308"/>
      <point x="314" y="317" type="qcurve"/>
      <point x="314" y="105" type="line"/>
      <point x="333" y="110"/>
      <point x="371" y="126"/>
      <point x="401" y="151"/>
      <point x="420" y="185"/>
    </contour>
    <contour>
      <point x="166" y="537" type="qcurve"/>
      <point x="166" y="505"/>
      <point x="214" y="465"/>
      <point x="251" y="449" type="qcurve"/>
      <point x="251" y="623" type="line"/>
      <point x="211" y="613"/>
      <point x="166" y="568"/>
    </contour>
  </outline>
</glyph>
<glyph name="ampersand" format="1">
  <advance width="686"/>
  <unicode hex="0026"/>
  <outline>
    <contour>
      <point x="664" y="95" type="line"/>
      <point x="664" y="0" type="line"/>
      <point x="537" y="0" type="line"/>
      <point x="529" y="10"/>
      <point x="519" y="21" type="qcurve"/>
      <point x="511" y="31"/>
      <point x="488" y="58"/>
      <point x="474" y="75" type="qcurve"/>
      <point x="442" y="37"/>
      <point x="339" y="-10"/>
      <point x="274" y="-10" type="qcurve"/>
      <point x="222" y="-10"/>
      <point x="135" y="22"/>
      <point x="72" y="80"/>
      <point x="37" y="159"/>
      <point x="37" y="206" type="qcurve"/>
      <point x="37" y="246"/>
      <point x="63" y="316"/>
      <point x="109" y="371"/>
      <point x="171" y="411"/>
      <point x="208" y="421" type="qcurve"/>
      <point x="194" y="442"/>
      <point x="172" y="479"/>
      <point x="164" y="493" type="qcurve"/>
      <point x="148" y="525"/>
      <point x="128" y="578"/>
      <point x="128" y="609" type="qcurve"/>
      <point x="128" y="643"/>
      <point x="155" y="698"/>
      <point x="202" y="736"/>
      <point x="265" y="757"/>
      <point x="300" y="758" type="qcurve"/>
      <point x="348" y="760"/>
      <point x="426" y="734"/>
      <point x="449" y="718" type="qcurve"/>
      <point x="449" y="718"/>
      <point x="434" y="697"/>
      <point x="417" y="673"/>
      <point x="402" y="652"/>
      <point x="402" y="651" type="qcurve"/>
      <point x="391" y="659"/>
      <point x="359" y="672"/>
      <point x="338" y="674" type="qcurve"/>
      <point x="317" y="677"/>
      <point x="275" y="671"/>
      <point x="241" y="653"/>
      <point x="220" y="621"/>
      <point x="220" y="598" type="qcurve"/>
      <point x="220" y="571"/>
      <point x="240" y="529"/>
      <point x="244" y="524" type="qcurve"/>
      <point x="462" y="234" type="line"/>
      <point x="538" y="429" type="line"/>
      <point x="629" y="429" type="line"/>
      <point x="521" y="155" type="line"/>
      <point x="567" y="95" type="line"/>
    </contour>
    <contour>
      <point x="262" y="345" type="qcurve"/>
      <point x="235" y="344"/>
      <point x="185" y="323"/>
      <point x="146" y="287"/>
      <point x="123" y="238"/>
      <point x="123" y="211" type="qcurve"/>
      <point x="123" y="175"/>
      <point x="150" y="124"/>
      <point x="194" y="90"/>
      <point x="251" y="74"/>
      <point x="280" y="74" type="qcurve"/>
      <point x="300" y="74"/>
      <point x="342" y="84"/>
      <point x="380" y="101"/>
      <point x="412" y="125"/>
      <point x="422" y="139" type="qcurve"/>
      <point x="384" y="187"/>
      <point x="300" y="294"/>
    </contour>
  </outline>
</glyph>
<glyph name="parenleft" format="1">
  <advance width="300"/>
  <unicode hex="0028"/>
  <outline>
    <contour>
      <point x="38" y="295" type="qcurve"/>
      <point x="38" y="371"/>
      <point x="67" y="509"/>
      <point x="113" y="627"/>
      <point x="173" y="722"/>
      <point x="205" y="756" type="qcurve"/>
      <point x="225" y="750"/>
      <point x="267" y="739"/>
      <point x="287" y="733" type="qcurve"/>
      <point x="258" y="700"/>
      <point x="202" y="609"/>
      <point x="158" y="497"/>
      <point x="131" y="367"/>
      <point x="131" y="295" type="qcurve"/>
      <point x="131" y="223"/>
      <point x="158" y="93"/>
      <point x="202" y="-19"/>
      <point x="258" y="-110"/>
      <point x="287" y="-143" type="qcurve"/>
      <point x="267" y="-150"/>
      <point x="225" y="-161"/>
      <point x="205" y="-167" type="qcurve"/>
      <point x="173" y="-133"/>
      <point x="113" y="-37"/>
      <point x="67" y="81"/>
      <point x="38" y="219"/>
    </contour>
  </outline>
</glyph>
<glyph name="plus" format="1">
  <advance width="451"/>
  <unicode hex="002B"/>
  <outline>
    <contour>
      <point x="179" y="52" type="line"/>
      <point x="179" y="189" type="line"/>
      <point x="43" y="189" type="line"/>
      <point x="43" y="278" type="line"/>
      <point x="179" y="278" type="line"/>
      <point x="179" y="417" type="line"/>
      <point x="272" y="417" type="line"/>
      <point x="272" y="278" type="line"/>
      <point x="408" y="278" type="line"/>
      <point x="408" y="189" type="line"/>
      <point x="272" y="189" type="line"/>
      <point x="272" y="52" type="line"/>
    </contour>
  </outline>
</glyph>
<glyph name="comma" format="1">
  <advance width="238"/>
  <unicode hex="002C"/>
  <outline>
    <contour>
      <point x="170" y="87" type="line"/>
      <point x="159" y="61"/>
      <point x="143" y="25"/>
      <point x="128" y="-7"/>
      <point x="113" y="-43"/>
      <point x="102" y="-69" type="qcurve"/>
      <point x="27" y="-69" type="line"/>
      <point x="37" y="-43"/>
      <point x="50" y="-7"/>
      <point x="62" y="25"/>
      <point x="75" y="61"/>
      <point x="85" y="87" type="qcurve"/>
    </contour>
  </outline>
</glyph>
<glyph name="period" format="1">
  <advance width="224"/>
  <unicode hex="002E"/>
  <outline>
    <contour>
      <point x="56" y="56" type="qcurve"/>
      <point x="56" y="80"/>
      <point x="91" y="113"/>
      <point x="113" y="113" type="qcurve"/>
      <point x="133" y="113"/>
      <point x="168" y="80"/>
      <point x="168" y="56" type="qcurve"/>
      <point x="168" y="30"/>
      <point x="133" y="0"/>
      <point x="113" y="0" type="qcurve"/>
      <point x="91" y="0"/>
      <point x="56" y="30"/>
    </contour>
  </outline>
</glyph>
<glyph name="zero" format="1">
  <advance width="642"/>
  <unicode hex="0030"/>
  <outline>
    <contour>
      <point x="49" y="333" type="qcurve"/>
      <point x="49" y="412"/>
      <point x="92" y="537"/>
      <point x="165" y="623"/>
      <point x="265" y="667"/>
      <point x="323" y="667" type="qcurve"/>
      <point x="384" y="667"/>
      <point x="484" y="617"/>
      <point x="555" y="528"/>
      <point x="594" y="403"/>
      <point x="593" y="327" type="qcurve"/>
      <point x="592" y="248"/>
      <point x="550" y="124"/>
      <point x="476" y="37"/>
      <point x="377" y="-8"/>
      <point x="319" y="-8" type="qcurve"/>
      <point x="263" y="-8"/>
      <point x="165" y="38"/>
      <point x="91" y="125"/>
      <point x="49" y="251"/>
    </contour>
    <contour>
      <point x="142" y="330" type="qcurve"/>
      <point x="141" y="279"/>
      <point x="169" y="189"/>
      <point x="217" y="121"/>
      <point x="282" y="81"/>
      <point x="319" y="81" type="qcurve"/>
      <point x="356" y="81"/>
      <point x="422" y="119"/>
      <point x="471" y="187"/>
      <point x="500" y="278"/>
      <point x="500" y="329" type="qcurve"/>
      <point x="500" y="366"/>
      <point x="483" y="453"/>
      <point x="441" y="528"/>
      <point x="373" y="578"/>
      <point x="323" y="578" type="qcurve"/>
      <point x="271" y="578"/>
      <point x="202" y="526"/>
      <point x="160" y="449"/>
      <point x="142" y="363"/>
    </contour>
  </outline>
</glyph>
<glyph name="four" format="1">
  <advance width="538"/>
  <unicode hex="0034"/>
  <outline>
    <contour>
      <point x="487" y="88" type="line"/>
      <point x="487" y="0" type="line"/>
      <point x="218" y="0" type="line"/>
      <point x="218" y="88" type="line"/>
      <point x="302" y="88" type="line"/>
      <point x="302" y="170" type="line"/>
      <point x="2" y="170" type="line"/>
      <point x="95" y="291"/>
      <point x="301" y="546"/>
      <point x="395" y="667" type="qcurve"/>
      <point x="395" y="259" type="line"/>
      <point x="493" y="259" type="line"/>
      <point x="493" y="170" type="line"/>
      <point x="395" y="170" type="line"/>
      <point x="395" y="88" type="line"/>
    </contour>
    <contour>
      <point x="302" y="418" type="line"/>
      <point x="180" y="259" type="line"/>
      <point x="302" y="259" type="line"/>
    </contour>
  </outline>
</glyph>
<glyph name="five" format="1">
  <advance width="463"/>
  <unicode hex="0035"/>
  <outline>
    <contour>
      <point x="285" y="516" type="line"/>
      <point x="285" y="570" type="line"/>
      <point x="160" y="570" type="line"/>
      <point x="160" y="426" type="line"/>
      <point x="168" y="429"/>
      <point x="181" y="433"/>
      <point x="192" y="433" type="qcurve"/>
      <point x="243" y="433"/>
      <point x="325" y="398"/>
      <point x="384" y="339"/>
      <point x="416" y="261"/>
      <point x="416" y="217" type="qcurve"/>
      <point x="416" y="169"/>
      <point x="380" y="87"/>
      <point x="319" y="27"/>
      <point x="237" y="-8"/>
      <point x="192" y="-8" type="qcurve"/>
      <point x="147" y="-8"/>
      <point x="69" y="25"/>
      <point x="39" y="54" type="qcurve"/>
      <point x="56" y="70"/>
      <point x="90" y="100"/>
      <point x="106" y="116" type="qcurve"/>
      <point x="123" y="100"/>
      <point x="167" y="81"/>
      <point x="193" y="81" type="qcurve"/>
      <point x="220" y="81"/>
      <point x="268" y="102"/>
      <point x="304" y="138"/>
      <point x="325" y="186"/>
      <point x="325" y="213" type="qcurve"/>
      <point x="325" y="240"/>
      <point x="304" y="288"/>
      <point x="267" y="323"/>
      <point x="219" y="344"/>
      <point x="192" y="344" type="qcurve"/>
      <point x="165" y="344"/>
      <point x="106" y="330"/>
      <point x="81" y="305" type="qcurve"/>
      <point x="81" y="659" type="line"/>
      <point x="373" y="659" type="line"/>
      <point x="373" y="516" type="line"/>
    </contour>
  </outline>
</glyph>
<glyph name="seven" format="1">
  <advance width="466"/>
  <unicode hex="0037"/>
  <outline>
    <contour>
      <point x="37" y="516" type="line"/>
      <point x="37" y="659" type="line"/>
      <point x="457" y="659" type="line"/>
      <point x="422" y="573"/>
      <point x="356" y="407"/>
      <point x="292" y="244"/>
      <point x="228" y="82"/>
      <point x="196" y="0" type="qcurve"/>
      <point x="92" y="0" type="line"/>
      <point x="143" y="131"/>
      <point x="257" y="424"/>
      <point x="314" y="569" type="qcurve"/>
      <point x="125" y="569" type="line"/>
      <point x="125" y="516" type="line"/>
    </contour>
  </outline>
</glyph>
<glyph name="semicolon" format="1">
  <advance width="253"/>
  <unicode hex="003B"/>
  <outline>
    <contour>
      <point x="77" y="310" type="qcurve"/>
      <point x="77" y="334"/>
      <point x="112" y="367"/>
      <point x="132" y="367" type="qcurve"/>
      <point x="153" y="367"/>
      <point x="187" y="334"/>
      <point x="187" y="310" type="qcurve"/>
      <point x="187" y="284"/>
      <point x="153" y="253"/>
      <point x="132" y="253" type="qcurve"/>
      <point x="112" y="253"/>
      <point x="77" y="284"/>
    </contour>
    <contour>
      <point x="174" y="87" type="line"/>
      <point x="163" y="61"/>
      <point x="147" y="25"/>
      <point x="132" y="-7"/>
      <point x="117" y="-43"/>
      <point x="106" y="-69" type="qcurve"/>
      <point x="31" y="-69" type="line"/>
      <point x="41" y="-43"/>
      <point x="54" y="-7"/>
      <point x="66" y="25"/>
      <point x="79" y="61"/>
      <point x="89" y="87" type="qcurve"/>
    </contour>
  </outline>
</glyph>
<glyph name="J" format="1">
  <advance width="351"/>
  <unicode hex="004A"/>
  <outline>
    <contour>
      <point x="258" y="725" type="line"/>
      <point x="258" y="135" type="line"/>
      <point x="258" y="68"/>
      <point x="218" y="-36"/>
      <point x="146" y="-109"/>
      <point x="47" y="-148"/>
      <point x="-11" y="-150" type="qcurve"/>
      <point x="-11" y="-47" type="line"/>
      <point x="59" y="-43"/>
      <point x="148" y="45"/>
      <point x="148" y="138" type="qcurve"/>
      <point x="148" y="630" type="line"/>
      <point x="40" y="630" type="line"/>
      <point x="40" y="725" type="line"/>
    </contour>
  </outline>
</glyph>
<glyph name="K" format="1">
  <advance width="712"/>
  <unicode hex="004B"/>
  <outline>
    <contour>
      <point x="319" y="95" type="line"/>
      <point x="319" y="0" type="line"/>
      <point x="50" y="0" type="line"/>
      <point x="50" y="95" type="line"/>
      <point x="130" y="95" type="line"/>
      <point x="130" y="630" type="line"/>
      <point x="50" y="630" type="line"/>
      <point x="50" y="725" type="line"/>
      <point x="319" y="725" type="line"/>
      <point x="319" y="630" type="line"/>
      <point x="250" y="630" type="line"/>
      <point x="250" y="440" type="line"/>
      <point x="250" y="431"/>
      <point x="248" y="414"/>
      <point x="247" y="405" type="qcurve"/>
      <point x="252" y="412"/>
      <point x="266" y="429"/>
      <point x="268" y="431" type="qcurve"/>
      <point x="277" y="439"/>
      <point x="314" y="482"/>
      <point x="362" y="537"/>
      <point x="415" y="601"/>
      <point x="440" y="630" type="qcurve"/>
      <point x="417" y="630" type="line"/>
      <point x="417" y="725" type="line"/>
      <point x="675" y="725" type="line"/>
      <point x="675" y="630" type="line"/>
      <point x="573" y="630" type="line"/>
      <point x="544" y="596"/>
      <point x="481" y="520"/>
      <point x="426" y="453"/>
      <point x="384" y="404"/>
      <point x="377" y="397" type="qcurve"/>
      <point x="612" y="95" type="line"/>
      <point x="708" y="95" type="line"/>
      <point x="708" y="0" type="line"/>
      <point x="437" y="0" type="line"/>
      <point x="437" y="95" type="line"/>
      <point x="478" y="95" type="line"/>
      <point x="300" y="324" type="line"/>
      <point x="296" y="320"/>
      <point x="282" y="307"/>
      <point x="267" y="292"/>
      <point x="254" y="279"/>
      <point x="250" y="275" type="qcurve"/>
      <point x="250" y="95" type="line"/>
    </contour>
  </outline>
</glyph>
<glyph name="L" format="1">
  <advance width="622"/>
  <unicode hex="004C"/>
  <outline>
    <contour>
      <point x="320" y="725" type="line"/>
      <point x="320" y="630" type="line"/>
      <point x="239" y="630" type="line"/>
      <point x="239" y="104" type="line"/>
      <point x="500" y="104" type="line"/>
      <point x="500" y="178" type="line"/>
      <point x="602" y="178" type="line"/>
      <point x="602" y="57" type="line"/>
      <point x="599" y="57" type="line"/>
      <point x="599" y="0" type="line"/>
      <point x="51" y="0" type="line"/>
      <point x="51" y="95" type="line"/>
      <point x="130" y="95" type="line"/>
      <point x="130" y="630" type="line"/>
      <point x="51" y="630" type="line"/>
      <point x="51" y="725" type="line"/>
    </contour>
  </outline>
</glyph>
<glyph name="P" format="1">
  <advance width="615"/>
  <unicode hex="0050"/>
  <outline>
    <contour>
      <point x="317" y="95" type="line"/>
      <point x="317" y="0" type="line"/>
      <point x="48" y="0" type="line"/>
      <point x="48" y="95" type="line"/>
      <point x="131" y="95" type="line"/>
      <point x="131" y="630" type="line"/>
      <point x="48" y="630" type="line"/>
      <point x="48" y="725" type="line"/>
      <point x="329" y="725" type="line"/>
      <point x="385" y="725"/>
      <point x="480" y="695"/>
      <point x="549" y="636"/>
      <point x="587" y="551"/>
      <point x="587" y="496" type="qcurve"/>
      <point x="587" y="453"/>
      <point x="561" y="368"/>
      <point x="503" y="301"/>
      <point x="410" y="259"/>
      <point x="343" y="259" type="qcurve"/>
      <point x="240" y="259" type="line"/>
      <point x="240" y="95" type="line"/>
    </contour>
    <contour>
      <point x="240" y="362" type="line"/>
      <point x="339" y="362" type="line"/>
      <point x="379" y="362"/>
      <point x="433" y="390"/>
      <point x="465" y="430"/>
      <point x="478" y="476"/>
      <point x="478" y="494" type="qcurve"/>
      <point x="478" y="513"/>
      <point x="464" y="558"/>
      <point x="432" y="597"/>
      <point x="379" y="623"/>
      <point x="340" y="623" type="qcurve"/>
      <point x="240" y="623" type="line"/>
    </contour>
  </outline>
</glyph>
<glyph name="T" format="1">
  <advance width="611"/>
  <unicode hex="0054"/>
  <outline>
    <contour>
      <point x="472" y="546" type="line"/>
      <point x="472" y="621" type="line"/>
      <point x="360" y="621" type="line"/>
      <point x="360" y="0" type="line"/>
      <point x="251" y="0" type="line"/>
      <point x="251" y="621" type="line"/>
      <point x="139" y="621" type="line"/>
      <point x="139" y="546" type="line"/>
      <point x="37" y="546" type="line"/>
      <point x="37" y="725" type="line"/>
      <point x="574" y="725" type="line"/>
      <point x="574" y="546" type="line"/>
    </contour>
  </outline>
</glyph>
<glyph name="X" format="1">
  <advance width="713"/>
  <unicode hex="0058"/>
  <outline>
    <contour>
      <point x="296" y="725" type="line"/>
      <point x="296" y="630" type="line"/>
      <point x="249" y="630" type="line"/>
      <point x="263" y="607"/>
      <point x="292" y="559"/>
      <point x="317" y="518"/>
      <point x="336" y="487"/>
      <point x="341" y="480" type="qcurve"/>
      <point x="342" y="478"/>
      <point x="354" y="455"/>
      <point x="357" y="446" type="qcurve"/>
      <point x="360" y="455"/>
      <point x="372" y="478"/>
      <point x="373" y="480" type="qcurve"/>
      <point x="378" y="488"/>
      <point x="401" y="526"/>
      <point x="430" y="575"/>
      <point x="462" y="630"/>
      <point x="491" y="679"/>
      <point x="514" y="717"/>
      <point x="519" y="725" type="qcurve"/>
      <point x="676" y="725" type="line"/>
      <point x="676" y="630" type="line"/>
      <point x="593" y="630" type="line"/>
      <point x="569" y="593"/>
      <point x="516" y="508"/>
      <point x="468" y="431"/>
      <point x="433" y="374"/>
      <point x="427" y="365" type="qcurve"/>
      <point x="602" y="95" type="line"/>
      <point x="697" y="95" type="line"/>
      <point x="697" y="0" type="line"/>
      <point x="428" y="0" type="line"/>
      <point x="428" y="95" type="line"/>
      <point x="468" y="95" type="line"/>
      <point x="379" y="238" type="line"/>
      <point x="377" y="241"/>
      <point x="369" y="253"/>
      <point x="361" y="268"/>
      <point x="353" y="282"/>
      <point x="351" y="286" type="qcurve"/>
      <point x="348" y="277"/>
      <point x="338" y="257"/>
      <point x="337" y="256" type="qcurve"/>
      <point x="329" y="243"/>
      <point x="284" y="170"/>
      <point x="235" y="86"/>
      <point x="190" y="13"/>
      <point x="182" y="0" type="qcurve"/>
      <point x="25" y="0" type="line"/>
      <point x="25" y="95" type="line"/>
      <point x="107" y="95" type="line"/>
      <point x="283" y="371" type="line"/>
      <point x="277" y="380"/>
      <point x="242" y="435"/>
      <point x="194" y="510"/>
      <point x="140" y="593"/>
      <point x="117" y="630" type="qcurve"/>
      <point x="27" y="630" type="line"/>
      <point x="27" y="725" type="line"/>
    </contour>
  </outline>
</glyph>
<glyph name="asciicircum" format="1">
  <advance width="370"/>
  <unicode hex="005E"/>
  <outline>
    <contour>
      <point x="185" y="669" type="qcurve"/>
      <point x="215" y="623"/>
      <point x="276" y="532"/>
      <point x="307" y="486" type="qcurve"/>
      <point x="243" y="486" type="line"/>
      <point x="239" y="492"/>
      <point x="223" y="513"/>
      <point x="205" y="536"/>
      <point x="189" y="558"/>
      <point x="185" y="564" type="qcurve"/>
      <point x="181" y="558"/>
      <point x="165" y="536"/>
      <point x="147" y="513"/>
      <point x="132" y="492"/>
      <point x="128" y="486" type="qcurve"/>
      <point x="63" y="486" type="line"/>
      <point x="94" y="532"/>
      <point x="155" y="623"/>
    </contour>
  </outline>
</glyph>
<glyph name="underscore" format="1">
  <advance width="520"/>
  <unicode hex="005F"/>
  <outline>
    <contour>
      <point x="463" y="0" type="line"/>
      <point x="57" y="0" type="line"/>
      <point x="57" y="89" type="line"/>
      <point x="463" y="89" type="line"/>
    </contour>
  </outline>
</glyph>
<glyph name="a" format="1">
  <advance width="568"/>
  <unicode hex="0061"/>
  <outline>
    <contour>
      <point x="481" y="74" type="line"/>
      <point x="540" y="74" type="line"/>
      <point x="540" y="0" type="line"/>
      <point x="395" y="0" type="line"/>
      <point x="395" y="53" type="line"/>
      <point x="390" y="45"/>
      <point x="368" y="23"/>
      <point x="333" y="4"/>
      <point x="285" y="-10"/>
      <point x="254" y="-10" type="qcurve"/>
      <point x="206" y="-10"/>
      <point x="125" y="25"/>
      <point x="66" y="84"/>
      <point x="34" y="162"/>
      <point x="34" y="205" type="qcurve"/>
      <point x="34" y="251"/>
      <point x="69" y="332"/>
      <point x="129" y="393"/>
      <point x="208" y="429"/>
      <point x="253" y="429" type="qcurve"/>
      <point x="283" y="429"/>
      <point x="333" y="414"/>
      <point x="369" y="392"/>
      <point x="391" y="368"/>
      <point x="395" y="359" type="qcurve"/>
      <point x="399" y="418" type="line"/>
      <point x="481" y="418" type="line"/>
    </contour>
    <contour>
      <point x="120" y="210" type="qcurve"/>
      <point x="120" y="181"/>
      <point x="140" y="131"/>
      <point x="177" y="95"/>
      <point x="227" y="74"/>
      <point x="257" y="74" type="qcurve"/>
      <point x="287" y="74"/>
      <point x="338" y="95"/>
      <point x="374" y="132"/>
      <point x="395" y="181"/>
      <point x="395" y="210" type="qcurve"/>
      <point x="395" y="239"/>
      <point x="374" y="288"/>
      <point x="338" y="324"/>
      <point x="287" y="345"/>
      <point x="257" y="345" type="qcurve"/>
      <point x="227" y="345"/>
      <point x="177" y="324"/>
      <point x="140" y="288"/>
      <point x="120" y="239"/>
    </contour>
  </outline>
</glyph>
<glyph name="b" format="1">
  <advance width="569"/>
  <unicode hex="0062"/>
  <outline>
    <contour>
      <point x="28" y="703" type="line"/>
      <point x="28" y="777" type="line"/>
      <point x="173" y="777" type="line"/>
      <point x="173" y="357" type="line"/>
      <point x="181" y="369"/>
      <point x="207" y="394"/>
      <point x="244" y="415"/>
      <point x="291" y="429"/>
      <point x="319" y="429" type="qcurve"/>
      <point x="367" y="429"/>
      <point x="446" y="398"/>
      <point x="503" y="341"/>
      <point x="534" y="259"/>
      <point x="534" y="208" type="qcurve"/>
      <point x="534" y="161"/>
      <point x="502" y="81"/>
      <point x="444" y="23"/>
      <point x="363" y="-10"/>
      <point x="315" y="-10" type="qcurve"/>
      <point x="290" y="-10"/>
      <point x="244" y="1"/>
      <point x="207" y="20"/>
      <point x="179" y="43"/>
      <point x="172" y="55" type="qcurve"/>
      <point x="172" y="50"/>
      <point x="173" y="39"/>
      <point x="173" y="34" type="qcurve"/>
      <point x="173" y="0" type="line"/>
      <point x="28" y="0" type="line"/>
      <point x="28" y="74" type="line"/>
      <point x="87" y="74" type="line"/>
      <point x="87" y="703" type="line"/>
    </contour>
    <contour>
      <point x="441" y="210" type="qcurve"/>
      <point x="441" y="268"/>
      <point x="371" y="345"/>
      <point x="310" y="345" type="qcurve"/>
      <point x="280" y="345"/>
      <point x="230" y="324"/>
      <point x="194" y="288"/>
      <point x="173" y="239"/>
      <point x="173" y="210" type="qcurve"/>
      <point x="173" y="181"/>
      <point x="194" y="131"/>
      <point x="230" y="95"/>
      <point x="280" y="74"/>
      <point x="310" y="74" type="qcurve"/>
      <point x="340" y="74"/>
      <point x="389" y="95"/>
      <point x="423" y="132"/>
      <point x="441" y="181"/>
    </contour>
  </outline>
</glyph>
<glyph name="j" format="1">
  <advance width="240"/>
  <unicode hex="006A"/>
  <outline>
    <contour>
      <point x="82" y="-202" type="qcurve"/>
      <point x="66" y="-185"/>
      <point x="36" y="-155"/>
      <point x="22" y="-138" type="qcurve"/>
      <point x="51" y="-115"/>
      <point x="83" y="-46"/>
      <point x="83" y="2" type="qcurve"/>
      <point x="83" y="344" type="line"/>
      <point x="24" y="344" type="line"/>
      <point x="24" y="418" type="line"/>
      <point x="168" y="418" type="line"/>
      <point x="168" y="-1" type="line"/>
      <point x="168" y="-69"/>
      <point x="122" y="-169"/>
    </contour>
    <contour>
      <point x="74" y="578" type="qcurve"/>
      <point x="74" y="602"/>
      <point x="108" y="634"/>
      <point x="129" y="634" type="qcurve"/>
      <point x="149" y="634"/>
      <point x="182" y="602"/>
      <point x="182" y="578" type="qcurve"/>
      <point x="182" y="554"/>
      <point x="149" y="523"/>
      <point x="129" y="523" type="qcurve"/>
      <point x="108" y="523"/>
      <point x="74" y="554"/>
    </contour>
  </outline>
</glyph>
<glyph name="m" format="1">
  <advance width="869"/>
  <unicode hex="006D"/>
  <outline>
    <contour>
      <point x="482" y="207" type="qcurve"/>
      <point x="482" y="74" type="line"/>
      <point x="541" y="74" type="line"/>
      <point x="541" y="0" type="line"/>
      <point x="331" y="0" type="line"/>
      <point x="331" y="74" type="line"/>
      <point x="397" y="74" type="line"/>
      <point x="397" y="265" type="line"/>
      <point x="395" y="297"/>
      <point x="354" y="342"/>
      <point x="312" y="344" type="qcurve"/>
      <point x="282" y="344"/>
      <point x="234" y="323"/>
      <point x="200" y="287"/>
      <point x="182" y="237"/>
      <point x="182" y="207" type="qcurve"/>
      <point x="182" y="74" type="line"/>
      <point x="248" y="74" type="line"/>
      <point x="248" y="0" type="line"/>
      <point x="38" y="0" type="line"/>
      <point x="38" y="74" type="line"/>
      <point x="97" y="74" type="line"/>
      <point x="97" y="344" type="line"/>
      <point x="38" y="344" type="line"/>
      <point x="38" y="418" type="line"/>
      <point x="172" y="418" type="line"/>
      <point x="174" y="387"/>
      <point x="177" y="336"/>
      <point x="179" y="311" type="qcurve"/>
      <point x="202" y="365"/>
      <point x="277" y="428"/>
      <point x="341" y="429" type="qcurve"/>
      <point x="401" y="429"/>
      <point x="475" y="367"/>
      <point x="481" y="317" type="qcurve"/>
      <point x="506" y="368"/>
      <point x="579" y="428"/>
      <point x="641" y="429" type="qcurve"/>
      <point x="706" y="429"/>
      <point x="782" y="359"/>
      <point x="784" y="304" type="qcurve"/>
      <point x="784" y="74" type="line"/>
      <point x="843" y="74" type="line"/>
      <point x="843" y="0" type="line"/>
      <point x="632" y="0" type="line"/>
      <point x="632" y="74" type="line"/>
      <point x="697" y="74" type="line"/>
      <point x="697" y="265" type="line"/>
      <point x="695" y="297"/>
      <point x="656" y="342"/>
      <point x="612" y="344" type="qcurve"/>
      <point x="552" y="344"/>
      <point x="484" y="267"/>
    </contour>
  </outline>
</glyph>
<glyph name="s" format="1">
  <advance width="368"/>
  <unicode hex="0073"/>
  <outline>
    <contour>
      <point x="115" y="130" type="line"/>
      <point x="115" y="87" type="line"/>
      <point x="126" y="82"/>
      <point x="157" y="75"/>
      <point x="175" y="75" type="qcurve"/>
      <point x="204" y="75"/>
      <point x="243" y="99"/>
      <point x="243" y="121" type="qcurve"/>
      <point x="243" y="138"/>
      <point x="215" y="158"/>
      <point x="173" y="176"/>
      <point x="124" y="195"/>
      <point x="82" y="225"/>
      <point x="54" y="270"/>
      <point x="54" y="306" type="qcurve"/>
      <point x="54" y="339"/>
      <point x="79" y="386"/>
      <point x="118" y="415"/>
      <point x="167" y="428"/>
      <point x="192" y="428" type="qcurve"/>
      <point x="205" y="428"/>
      <point x="238" y="424"/>
      <point x="271" y="415"/>
      <point x="302" y="399"/>
      <point x="313" y="388" type="qcurve"/>
      <point x="313" y="295" type="line"/>
      <point x="240" y="295" type="line"/>
      <point x="240" y="339" type="line"/>
      <point x="231" y="341"/>
      <point x="208" y="345"/>
      <point x="195" y="345" type="qcurve"/>
      <point x="175" y="345"/>
      <point x="141" y="329"/>
      <point x="141" y="307" type="qcurve"/>
      <point x="141" y="288"/>
      <point x="169" y="264"/>
      <point x="211" y="244"/>
      <point x="259" y="225"/>
      <point x="301" y="196"/>
      <point x="329" y="153"/>
      <point x="329" y="120" type="qcurve"/>
      <point x="329" y="63"/>
      <point x="246" y="-9"/>
      <point x="174" y="-9" type="qcurve"/>
      <point x="158" y="-9"/>
      <point x="121" y="-4"/>
      <point x="85" y="7"/>
      <point x="52" y="24"/>
      <point x="41" y="37" type="qcurve"/>
      <point x="41" y="130" type="line"/>
    </contour>
  </outline>
</glyph>
<glyph name="x" format="1">
  <advance width="484"/>
  <unicode hex="0078"/>
  <outline>
    <contour>
      <point x="40" y="419" type="line"/>
      <point x="230" y="419" type="line"/>
      <point x="230" y="345" type="line"/>
      <point x="202" y="345" type="line"/>
      <point x="244" y="286" type="line"/>
      <point x="340" y="419" type="line"/>
      <point x="447" y="419" type="line"/>
      <point x="447" y="345" type="line"/>
      <point x="376" y="345" type="line"/>
      <point x="287" y="217" type="line"/>
      <point x="391" y="74" type="line"/>
      <point x="460" y="74" type="line"/>
      <point x="460" y="0" type="line"/>
      <point x="248" y="0" type="line"/>
      <point x="248" y="74" type="line"/>
      <point x="285" y="74" type="line"/>
      <point x="268" y="97"/>
      <point x="238" y="136"/>
      <point x="233" y="143" type="qcurve"/>
      <point x="228" y="136"/>
      <point x="199" y="95"/>
      <point x="166" y="48"/>
      <point x="136" y="6"/>
      <point x="132" y="0" type="qcurve"/>
      <point x="24" y="0" type="line"/>
      <point x="24" y="74" type="line"/>
      <point x="89" y="74" type="line"/>
      <point x="105" y="96"/>
      <point x="140" y="145"/>
      <point x="170" y="187"/>
      <point x="193" y="217"/>
      <point x="196" y="221" type="qcurve"/>
      <point x="193" y="225"/>
      <point x="174" y="250"/>
      <point x="149" y="285"/>
      <point x="119" y="325"/>
      <point x="105" y="345" type="qcurve"/>
      <point x="40" y="345" type="line"/>
    </contour>
  </outline>
</glyph>
<glyph name="z" format="1">
  <advance width="465"/>
  <unicode hex="007A"/>
  <outline>
    <contour>
      <point x="432" y="130" type="line"/>
      <point x="432" y="0" type="line"/>
      <point x="18" y="0" type="line"/>
      <point x="258" y="345" type="line"/>
      <point x="121" y="345" type="line"/>
      <point x="86" y="345"/>
      <point x="40" y="383"/>
      <point x="40" y="415" type="qcurve"/>
      <point x="40" y="458" type="line"/>
      <point x="117" y="458" type="line"/>
      <point x="117" y="445" type="line"/>
      <point x="117" y="428"/>
      <point x="133" y="418"/>
      <point x="151" y="418" type="qcurve"/>
      <point x="415" y="418" type="line"/>
      <point x="182" y="84" type="line"/>
      <point x="359" y="84" type="line"/>
      <point x="359" y="130" type="line"/>
    </contour>
  </outline>
</glyph>
<glyph name="braceleft" format="1">
  <advance width="331"/>
  <unicode hex="007B"/>
  <outline>
    <contour>
      <point x="29" y="256" type="qcurve"/>
      <point x="29" y="345" type="line"/>
      <point x="53" y="346"/>
      <point x="84" y="373"/>
      <point x="102" y="414"/>
      <point x="109" y="461"/>
      <point x="109" y="482" type="qcurve"/>
      <point x="109" y="637" type="line"/>
      <point x="109" y="684"/>
      <point x="129" y="733"/>
      <point x="162" y="754"/>
      <point x="207" y="756"/>
      <point x="232" y="756" type="qcurve"/>
      <point x="299" y="756" type="line"/>
      <point x="299" y="667" type="line"/>
      <point x="256" y="667" type="line"/>
      <point x="240" y="667"/>
      <point x="219" y="660"/>
      <point x="207" y="637"/>
      <point x="202" y="597"/>
      <point x="202" y="564" type="qcurve"/>
      <point x="202" y="435" type="line"/>
      <point x="202" y="406"/>
      <point x="189" y="362"/>
      <point x="169" y="330"/>
      <point x="146" y="308"/>
      <point x="137" y="302" type="qcurve"/>
      <point x="146" y="296"/>
      <point x="169" y="274"/>
      <point x="189" y="242"/>
      <point x="202" y="198"/>
      <point x="202" y="170" type="qcurve"/>
      <point x="202" y="42" type="line"/>
      <point x="202" y="9"/>
      <point x="207" y="-32"/>
      <point x="219" y="-54"/>
      <point x="240" y="-62"/>
      <point x="256" y="-62" type="qcurve"/>
      <point x="299" y="-62" type="line"/>
      <point x="299" y="-152" type="line"/>
      <point x="232" y="-152" type="line"/>
      <point x="208" y="-152"/>
      <point x="164" y="-150"/>
      <point x="129" y="-129"/>
      <point x="109" y="-81"/>
      <point x="109" y="-35" type="qcurve"/>
      <point x="109" y="119" type="line"/>
      <point x="109" y="140"/>
      <point x="102" y="187"/>
      <point x="84" y="227"/>
      <point x="53" y="255"/>
    </contour>
  </outline>
</glyph>
<glyph name="bar" format="1">
  <advance width="267"/>
  <unicode hex="007C"/>
  <outline>
    <contour>
      <point x="87" y="-236" type="line"/>
      <point x="87" y="710" type="line"/>
      <point x="180" y="710" type="line"/>
      <point x="180" y="-236" type="line"/>
    </contour>
  </outline>
</glyph>
<glyph name="asciitilde" format="1">
  <advance width="472"/>
  <unicode hex="007E"/>
  <outline>
    <contour>
      <point x="228" y="486" type="qcurve"/>
      <point x="212" y="501"/>
      <point x="190" y="512"/>
      <point x="176" y="512" type="qcurve"/>
      <point x="162" y="512"/>
      <point x="126" y="494"/>
      <point x="123" y="466" type="qcurve"/>
      <point x="74" y="469" type="line"/>
      <point x="75" y="490"/>
      <point x="93" y="524"/>
      <point x="120" y="548"/>
      <point x="152" y="561"/>
      <point x="168" y="561" type="qcurve"/>
      <point x="192" y="561"/>
      <point x="230" y="543"/>
      <point x="246" y="527" type="qcurve"/>
      <point x="262" y="512"/>
      <point x="285" y="502"/>
      <point x="299" y="502" type="qcurve"/>
      <point x="306" y="502"/>
      <point x="323" y="506"/>
      <point x="338" y="516"/>
      <point x="350" y="534"/>
      <point x="352" y="548" type="qcurve"/>
      <point x="400" y="545" type="line"/>
      <point x="399" y="524"/>
      <point x="381" y="491"/>
      <point x="354" y="467"/>
      <point x="322" y="454"/>
      <point x="307" y="454" type="qcurve"/>
      <point x="284" y="454"/>
      <point x="245" y="471"/>
    </contour>
  </outline>
</glyph>
<glyph name="cent" format="1">
  <advance width="445"/>
  <unicode hex="00A2"/>
  <outline>
    <contour>
      <point x="399" y="382" type="qcurve"/>
      <point x="399" y="295" type="line"/>
      <point x="326" y="295" type="line"/>
      <point x="326" y="330" type="line"/>
      <point x="299" y="343"/>
      <point x="267" y="345" type="qcurve"/>
      <point x="267" y="74" type="line"/>
      <point x="291" y="76"/>
      <point x="336" y="90"/>
      <point x="351" y="103" type="qcurve"/>
      <point x="365" y="86"/>
      <point x="390" y="55"/>
      <point x="403" y="38" type="qcurve"/>
      <point x="376" y="17"/>
      <point x="306" y="-7"/>
      <point x="267" y="-9" type="qcurve"/>
      <point x="267" y="-68" type="line"/>
      <point x="204" y="-68" type="line"/>
      <point x="204" y="-5" type="line"/>
      <point x="165" y="3"/>
      <point x="102" y="42"/>
      <point x="59" y="99"/>
      <point x="35" y="169"/>
      <point x="35" y="208" type="qcurve"/>
      <point x="35" y="247"/>
      <point x="60" y="318"/>
      <point x="105" y="374"/>
      <point x="167" y="413"/>
      <point x="204" y="422" type="qcurve"/>
      <point x="204" y="486" type="line"/>
      <point x="267" y="486" type="line"/>
      <point x="267" y="429" type="line"/>
      <point x="304" y="427"/>
      <point x="372" y="403"/>
    </contour>
    <contour>
      <point x="120" y="210" type="qcurve"/>
      <point x="120" y="165"/>
      <point x="166" y="98"/>
      <point x="204" y="83" type="qcurve"/>
      <point x="204" y="335" type="line"/>
      <point x="166" y="320"/>
      <point x="120" y="254"/>
    </contour>
  </outline>
</glyph>
<glyph name="sterling" format="1">
  <advance width="614"/>
  <unicode hex="00A3"/>
  <outline>
    <contour>
      <point x="209" y="89" type="qcurve"/>
      <point x="376" y="89" type="line"/>
      <point x="409" y="89"/>
      <point x="449" y="94"/>
      <point x="472" y="106"/>
      <point x="479" y="127"/>
      <point x="479" y="142" type="qcurve"/>
      <point x="479" y="185" type="line"/>
      <point x="502" y="185"/>
      <point x="549" y="186"/>
      <point x="572" y="186" type="qcurve"/>
      <point x="572" y="86" type="line"/>
      <point x="572" y="67"/>
      <point x="563" y="36"/>
      <point x="536" y="13"/>
      <point x="489" y="0"/>
      <point x="452" y="0" type="qcurve"/>
      <point x="40" y="0" type="line"/>
      <point x="40" y="89" type="line"/>
      <point x="85" y="89" type="line"/>
      <point x="101" y="89"/>
      <point x="121" y="96"/>
      <point x="133" y="116"/>
      <point x="138" y="154"/>
      <point x="138" y="185" type="qcurve"/>
      <point x="138" y="272" type="line"/>
      <point x="72" y="272" type="line"/>
      <point x="72" y="362" type="line"/>
      <point x="138" y="362" type="line"/>
      <point x="138" y="542" type="line"/>
      <point x="138" y="578"/>
      <point x="169" y="638"/>
      <point x="225" y="681"/>
      <point x="304" y="706"/>
      <point x="352" y="706" type="qcurve"/>
      <point x="424" y="706"/>
      <point x="514" y="651"/>
      <point x="539" y="603" type="qcurve"/>
      <point x="522" y="593"/>
      <point x="487" y="573"/>
      <point x="469" y="563" type="qcurve"/>
      <point x="464" y="567"/>
      <point x="452" y="585"/>
      <point x="428" y="603"/>
      <point x="387" y="616"/>
      <point x="354" y="616" type="qcurve"/>
      <point x="294" y="616"/>
      <point x="230" y="565"/>
      <point x="230" y="517" type="qcurve"/>
      <point x="230" y="362" type="line"/>
      <point x="348" y="362" type="line"/>
      <point x="348" y="272" type="line"/>
      <point x="230" y="272" type="line"/>
      <point x="230" y="166" type="line"/>
      <point x="230" y="140"/>
      <point x="225" y="103"/>
    </contour>
  </outline>
</glyph>
<glyph name="ordfeminine" format="1">
  <advance width="460"/>
  <unicode hex="00AA"/>
  <outline>
    <contour>
      <point x="365" y="359" type="line"/>
      <point x="408" y="359" type="line"/>
      <point x="408" y="306" type="line"/>
      <point x="303" y="306" type="line"/>
      <point x="303" y="344" type="line"/>
      <point x="300" y="338"/>
      <point x="283" y="323"/>
      <point x="258" y="309"/>
      <point x="223" y="299"/>
      <point x="201" y="299" type="qcurve"/>
      <point x="166" y="299"/>
      <point x="108" y="324"/>
      <point x="66" y="367"/>
      <point x="43" y="423"/>
      <point x="43" y="454" type="qcurve"/>
      <point x="43" y="487"/>
      <point x="68" y="546"/>
      <point x="111" y="589"/>
      <point x="169" y="615"/>
      <point x="201" y="615" type="qcurve"/>
      <point x="223" y="615"/>
      <point x="258" y="604"/>
      <point x="284" y="589"/>
      <point x="300" y="571"/>
      <point x="303" y="565" type="qcurve"/>
      <point x="306" y="607" type="line"/>
      <point x="365" y="607" type="line"/>
    </contour>
    <contour>
      <point x="105" y="457" type="qcurve"/>
      <point x="105" y="415"/>
      <point x="160" y="359"/>
      <point x="203" y="359" type="qcurve"/>
      <point x="247" y="359"/>
      <point x="303" y="416"/>
      <point x="303" y="457" type="qcurve"/>
      <point x="303" y="499"/>
      <point x="247" y="555"/>
      <point x="203" y="555" type="qcurve"/>
      <point x="160" y="555"/>
      <point x="105" y="499"/>
    </contour>
  </outline>
</glyph>
<glyph name="guillemotleft" format="1">
  <advance width="457"/>
  <unicode hex="00AB"/>
  <outline>
    <contour>
      <point x="388" y="50" type="line"/>
      <point x="214" y="242" type="line"/>
      <point x="218" y="246"/>
      <point x="245" y="276"/>
      <point x="281" y="315"/>
      <point x="322" y="361"/>
      <point x="357" y="400"/>
      <point x="384" y="430"/>
      <point x="388" y="434" type="qcurve"/>
      <point x="388" y="330" type="line"/>
      <point x="383" y="324"/>
      <point x="363" y="300"/>
      <point x="341" y="272"/>
      <point x="321" y="248"/>
      <point x="316" y="242" type="qcurve"/>
      <point x="321" y="237"/>
      <point x="341" y="212"/>
      <point x="363" y="185"/>
      <point x="383" y="160"/>
      <point x="388" y="155" type="qcurve"/>
    </contour>
    <contour>
      <point x="214" y="50" type="line"/>
      <point x="41" y="242" type="line"/>
      <point x="45" y="246"/>
      <point x="72" y="276"/>
      <point x="107" y="315"/>
      <point x="148" y="361"/>
      <point x="183" y="400"/>
      <point x="210" y="430"/>
      <point x="214" y="434" type="qcurve"/>
      <point x="214" y="329" type="line"/>
      <point x="209" y="324"/>
      <point x="189" y="299"/>
      <point x="168" y="272"/>
      <point x="148" y="248"/>
      <point x="143" y="242" type="qcurve"/>
      <point x="148" y="237"/>
      <point x="168" y="212"/>
      <point x="189" y="185"/>
      <point x="209" y="160"/>
      <point x="214" y="155" type="qcurve"/>
    </contour>
  </outline>
</glyph>
<glyph name="registered" format="1">
  <advance width="634"/>
  <unicode hex="00AE"/>
  <outline>
    <contour>
      <point x="317" y="113" type="qcurve"/>
      <point x="263" y="113"/>
      <point x="168" y="152"/>
      <point x="97" y="222"/>
      <point x="56" y="316"/>
      <point x="56" y="372" type="qcurve"/>
      <point x="56" y="428"/>
      <point x="97" y="524"/>
      <point x="168" y="593"/>
      <point x="263" y="632"/>
      <point x="317" y="632" type="qcurve"/>
      <point x="371" y="632"/>
      <point x="466" y="593"/>
      <point x="537" y="524"/>
      <point x="578" y="428"/>
      <point x="578" y="372" type="qcurve"/>
      <point x="578" y="316"/>
      <point x="537" y="222"/>
      <point x="466" y="152"/>
      <point x="371" y="113"/>
    </contour>
    <contour>
      <point x="317" y="143" type="qcurve"/>
      <point x="365" y="143"/>
      <point x="448" y="178"/>
      <point x="510" y="239"/>
      <point x="545" y="323"/>
      <point x="545" y="372" type="qcurve"/>
      <point x="545" y="422"/>
      <point x="510" y="506"/>
      <point x="448" y="568"/>
      <point x="365" y="602"/>
      <point x="317" y="602" type="qcurve"/>
      <point x="269" y="602"/>
      <point x="186" y="568"/>
      <point x="124" y="506"/>
      <point x="89" y="422"/>
      <point x="89" y="372" type="qcurve"/>
      <point x="89" y="323"/>
      <point x="124" y="239"/>
      <point x="186" y="178"/>
      <point x="269" y="143"/>
    </contour>
    <contour>
      <point x="461" y="256" type="line"/>
      <point x="461" y="214" type="line"/>
      <point x="388" y="214" type="line"/>
      <point x="371" y="241"/>
      <point x="332" y="303"/>
      <point x="315" y="328" type="qcurve"/>
      <point x="307" y="328" type="line"/>
      <point x="262" y="328" type="line"/>
      <point x="262" y="256" type="line"/>
      <point x="296" y="256" type="line"/>
      <point x="296" y="214" type="line"/>
      <point x="177" y="214" type="line"/>
      <point x="177" y="256" type="line"/>
      <point x="214" y="256" type="line"/>
      <point x="214" y="492" type="line"/>
      <point x="177" y="492" type="line"/>
      <point x="177" y="534" type="line"/>
      <point x="301" y="534" type="line"/>
      <point x="351" y="534"/>
      <point x="415" y="482"/>
      <point x="415" y="433" type="qcurve"/>
      <point x="415" y="407"/>
      <point x="392" y="356"/>
      <point x="366" y="341" type="qcurve"/>
      <point x="419" y="256" type="line"/>
    </contour>
    <contour>
      <point x="262" y="374" type="line"/>
      <point x="305" y="374" type="line"/>
      <point x="323" y="374"/>
      <point x="347" y="386"/>
      <point x="361" y="404"/>
      <point x="367" y="424"/>
      <point x="367" y="432" type="qcurve"/>
      <point x="367" y="441"/>
      <point x="361" y="461"/>
      <point x="347" y="478"/>
      <point x="323" y="489"/>
      <point x="306" y="489" type="qcurve"/>
      <point x="262" y="489" type="line"/>
    </contour>
  </outline>
</glyph>
<glyph name="degree" format="1">
  <advance width="301"/>
  <unicode hex="00B0"/>
  <outline>
    <contour>
      <point x="152" y="520" type="qcurve"/>
      <point x="172" y="520"/>
      <point x="200" y="547"/>
      <point x="200" y="567" type="qcurve"/>
      <point x="200" y="587"/>
      <point x="172" y="615"/>
      <point x="152" y="615" type="qcurve"/>
      <point x="132" y="615"/>
      <point x="104" y="587"/>
      <point x="104" y="567" type="qcurve"/>
      <point x="104" y="547"/>
      <point x="132" y="520"/>
    </contour>
    <contour>
      <point x="46" y="568" type="qcurve"/>
      <point x="46" y="590"/>
      <point x="63" y="628"/>
      <point x="91" y="656"/>
      <point x="130" y="672"/>
      <point x="152" y="672" type="qcurve"/>
      <point x="173" y="672"/>
      <point x="211" y="656"/>
      <point x="239" y="628"/>
      <point x="255" y="590"/>
      <point x="255" y="568" type="qcurve"/>
      <point x="255" y="546"/>
      <point x="239" y="508"/>
      <point x="211" y="480"/>
      <point x="173" y="464"/>
      <point x="152" y="464" type="qcurve"/>
      <point x="130" y="464"/>
      <point x="91" y="480"/>
      <point x="63" y="508"/>
      <point x="46" y="546"/>
    </contour>
  </outline>
</glyph>
<glyph name="onesuperior" format="1">
  <advance width="187"/>
  <unicode hex="00B9"/>
  <outline>
    <contour>
      <point x="48" y="663" type="line"/>
      <point x="48" y="704" type="line"/>
      <point x="120" y="704" type="line"/>
      <point x="120" y="401" type="line"/>
      <point x="78" y="401" type="line"/>
      <point x="78" y="663" type="line"/>
    </contour>
  </outline>
</glyph>
<glyph name="guillemotright" format="1">
  <advance width="456"/>
  <unicode hex="00BB"/>
  <outline>
    <contour>
      <point x="69" y="155" type="line"/>
      <point x="74" y="160"/>
      <point x="94" y="185"/>
      <point x="116" y="212"/>
      <point x="136" y="237"/>
      <point x="141" y="242" type="qcurve"/>
      <point x="136" y="248"/>
      <point x="116" y="272"/>
      <point x="94" y="300"/>
      <point x="74" y="324"/>
      <point x="69" y="330" type="qcurve"/>
      <point x="69" y="434" type="line"/>
      <point x="73" y="430"/>
      <point x="100" y="400"/>
      <point x="136" y="361"/>
      <point x="176" y="315"/>
      <point x="212" y="276"/>
      <point x="238" y="246"/>
      <point x="243" y="242" type="qcurve"/>
      <point x="69" y="50" type="line"/>
    </contour>
    <contour>
      <point x="243" y="155" type="line"/>
      <point x="248" y="160"/>
      <point x="268" y="185"/>
      <point x="289" y="212"/>
      <point x="309" y="237"/>
      <point x="314" y="242" type="qcurve"/>
      <point x="309" y="248"/>
      <point x="289" y="272"/>
      <point x="268" y="299"/>
      <point x="248" y="324"/>
      <point x="243" y="329" type="qcurve"/>
      <point x="243" y="434" type="line"/>
      <point x="247" y="430"/>
      <point x="274" y="400"/>
      <point x="309" y="361"/>
      <point x="350" y="315"/>
      <point x="385" y="276"/>
      <point x="412" y="246"/>
      <point x="416" y="242" type="qcurve"/>
      <point x="243" y="50" type="line"/>
    </contour>
  </outline>
</glyph>
<glyph name="Agrave" format="1">
  <advance width="747"/>
  <unicode hex="00C0"/>
  <outline>
    <contour>
      <point x="4" y="95" type="line"/>
      <point x="4" y="0" type="line"/>
      <point x="273" y="0" type="line"/>
      <point x="273" y="95" type="line"/>
      <point x="198" y="95" type="line"/>
      <point x="244" y="208" type="line"/>
      <point x="502" y="208" type="line"/>
      <point x="548" y="95" type="line"/>
      <point x="474" y="95" type="line"/>
      <point x="474" y="0" type="line"/>
      <point x="743" y="0" type="line"/>
      <point x="743" y="95" type="line"/>
      <point x="655" y="95" type="line"/>
      <point x="374" y="759" type="line"/>
      <point x="91" y="95" type="line"/>
    </contour>
    <contour>
      <point x="363" y="494" type="line"/>
      <point x="365" y="501"/>
      <point x="367" y="507" type="qcurve"/>
      <point x="369" y="512"/>
      <point x="372" y="525"/>
      <point x="374" y="530" type="qcurve"/>
      <point x="375" y="525"/>
      <point x="378" y="512"/>
      <point x="380" y="507" type="qcurve"/>
      <point x="382" y="501"/>
      <point x="384" y="494" type="qcurve"/>
      <point x="464" y="300" type="line"/>
      <point x="282" y="300" type="line"/>
    </contour>
    <contour>
      <point x="372" y="907" type="line"/>
      <point x="395" y="874"/>
      <point x="440" y="806"/>
      <point x="463" y="773" type="qcurve"/>
      <point x="399" y="773" type="line"/>
      <point x="369" y="806"/>
      <point x="309" y="874"/>
      <point x="280" y="907" type="qcurve"/>
    </contour>
  </outline>
</glyph>
<glyph name="Aring" format="1">
  <advance width="747"/>
  <unicode hex="00C5"/>
  <outline>
    <contour>
      <point x="91" y="95" type="line"/>
      <point x="373" y="757" type="line"/>
      <point x="355" y="757"/>
      <point x="324" y="771"/>
      <point x="301" y="794"/>
      <point x="287" y="825"/>
      <point x="287" y="843" type="qcurve"/>
      <point x="287" y="860"/>
      <point x="301" y="890"/>
      <point x="324" y="913"/>
      <point x="355" y="927"/>
      <point x="373" y="927" type="qcurve"/>
      <point x="408" y="927"/>
      <point x="457" y="877"/>
      <point x="457" y="843" type="qcurve"/>
      <point x="457" y="825"/>
      <point x="444" y="794"/>
      <point x="422" y="771"/>
      <point x="392" y="757"/>
      <point x="375" y="757" type="qcurve"/>
      <point x="655" y="95" type="line"/>
      <point x="743" y="95" type="line"/>
      <point x="743" y="0" type="line"/>
      <point x="474" y="0" type="line"/>
      <point x="474" y="95" type="line"/>
      <point x="548" y="95" type="line"/>
      <point x="502" y="208" type="line"/>
      <point x="244" y="208" type="line"/>
      <point x="198" y="95" type="line"/>
      <point x="273" y="95" type="line"/>
      <point x="273" y="0" type="line"/>
      <point x="4" y="0" type="line"/>
      <point x="4" y="95" type="line"/>
    </contour>
    <contour>
      <point x="282" y="300" type="line"/>
      <point x="464" y="300" type="line"/>
      <point x="384" y="494" type="line"/>
      <point x="382" y="501"/>
      <point x="380" y="507" type="qcurve"/>
      <point x="378" y="512"/>
      <point x="375" y="525"/>
      <point x="374" y="530" type="qcurve"/>
      <point x="372" y="525"/>
      <point x="369" y="512"/>
      <point x="367" y="507" type="qcurve"/>
      <point x="365" y="501"/>
      <point x="363" y="494" type="qcurve"/>
    </contour>
    <contour>
      <point x="338" y="841" type="qcurve"/>
      <point x="338" y="827"/>
      <point x="358" y="807"/>
      <point x="373" y="807" type="qcurve"/>
      <point x="387" y="807"/>
      <point x="408" y="827"/>
      <point x="408" y="841" type="qcurve"/>
      <point x="408" y="857"/>
      <point x="387" y="877"/>
      <point x="373" y="877" type="qcurve"/>
      <point x="358" y="877"/>
      <point x="338" y="857"/>
    </contour>
  </outline>
</glyph>
<glyph name="Ecircumflex" format="1">
  <advance width="665"/>
  <unicode hex="00CA"/>
  <outline>
    <contour>
      <point x="503" y="555" type="line"/>
      <point x="503" y="626" type="line"/>
      <point x="239" y="626" type="line"/>
      <point x="239" y="414" type="line"/>
      <point x="565" y="414" type="line"/>
      <point x="565" y="313" type="line"/>
      <point x="239" y="313" type="line"/>
      <point x="239" y="101" type="line"/>
      <point x="517" y="101" type="line"/>
      <point x="517" y="178" type="line"/>
      <point x="620" y="178" type="line"/>
      <point x="620" y="0" type="line"/>
      <point x="51" y="0" type="line"/>
      <point x="51" y="95" type="line"/>
      <point x="130" y="95" type="line"/>
      <point x="130" y="630" type="line"/>
      <point x="51" y="630" type="line"/>
      <point x="51" y="725" type="line"/>
      <point x="606" y="725" type="line"/>
      <point x="606" y="555" type="line"/>
    </contour>
    <contour>
      <point x="336" y="917" type="qcurve"/>
      <point x="362" y="887"/>
      <point x="385" y="860" type="qcurve"/>
      <point x="405" y="837"/>
      <point x="445" y="788"/>
      <point x="458" y="773" type="qcurve"/>
      <point x="394" y="773" type="line"/>
      <point x="336" y="826" type="line"/>
      <point x="279" y="773" type="line"/>
      <point x="214" y="773" type="line"/>
      <point x="225" y="787"/>
      <point x="267" y="837"/>
      <point x="287" y="860" type="qcurve"/>
      <point x="311" y="887"/>
    </contour>
  </outline>
</glyph>
<glyph name="Edieresis" format="1">
  <advance width="665"/>
  <unicode hex="00CB"/>
  <outline>
    <contour>
      <point x="503" y="555" type="line"/>
      <point x="503" y="626" type="line"/>
      <point x="239" y="626" type="line"/>
      <point x="239" y="414" type="line"/>
      <point x="565" y="414" type="line"/>
      <point x="565" y="313" type="line"/>
      <point x="239" y="313" type="line"/>
      <point x="239" y="101" type="line"/>
      <point x="517" y="101" type="line"/>
      <point x="517" y="178" type="line"/>
      <point x="620" y="178" type="line"/>
      <point x="620" y="0" type="line"/>
      <point x="51" y="0" type="line"/>
      <point x="51" y="95" type="line"/>
      <point x="130" y="95" type="line"/>
      <point x="130" y="630" type="line"/>
      <point x="51" y="630" type="line"/>
      <point x="51" y="725" type="line"/>
      <point x="606" y="725" type="line"/>
      <point x="606" y="555" type="line"/>
    </contour>
    <contour>
      <point x="188" y="829" type="qcurve"/>
      <point x="188" y="854"/>
      <point x="223" y="886"/>
      <point x="245" y="886" type="qcurve"/>
      <point x="265" y="886"/>
      <point x="300" y="854"/>
      <point x="300" y="829" type="qcurve"/>
      <point x="300" y="804"/>
      <point x="265" y="773"/>
      <point x="245" y="773" type="qcurve"/>
      <point x="223" y="773"/>
      <point x="188" y="804"/>
    </contour>
    <contour>
      <point x="378" y="829" type="qcurve"/>
      <point x="378" y="854"/>
      <point x="413" y="886"/>
      <point x="434" y="886" type="qcurve"/>
      <point x="454" y="886"/>
      <point x="489" y="854"/>
      <point x="489" y="829" type="qcurve"/>
      <point x="489" y="804"/>
      <point x="454" y="773"/>
      <point x="434" y="773" type="qcurve"/>
      <point x="413" y="773"/>
      <point x="378" y="804"/>
    </contour>
  </outline>
</glyph>
<glyph name="Iacute" format="1">
  <advance width="369"/>
  <unicode hex="00CD"/>
  <outline>
    <contour>
      <point x="319" y="725" type="line"/>
      <point x="319" y="630" type="line"/>
      <point x="239" y="630" type="line"/>
      <point x="239" y="95" type="line"/>
      <point x="319" y="95" type="line"/>
      <point x="319" y="0" type="line"/>
      <point x="50" y="0" type="line"/>
      <point x="50" y="95" type="line"/>
      <point x="130" y="95" type="line"/>
      <point x="130" y="630" type="line"/>
      <point x="50" y="630" type="line"/>
      <point x="50" y="725" type="line"/>
    </contour>
    <contour>
      <point x="92" y="773" type="line"/>
      <point x="115" y="806"/>
      <point x="161" y="874"/>
      <point x="184" y="907" type="qcurve"/>
      <point x="276" y="907" type="line"/>
      <point x="157" y="773" type="line"/>
    </contour>
  </outline>
</glyph>
<glyph name="Ntilde" format="1">
  <advance width="882"/>
  <unicode hex="00D1"/>
  <outline>
    <contour>
      <point x="320" y="95" type="line"/>
      <point x="320" y="0" type="line"/>
      <point x="50" y="0" type="line"/>
      <point x="50" y="95" type="line"/>
      <point x="130" y="95" type="line"/>
      <point x="130" y="630" type="line"/>
      <point x="47" y="630" type="line"/>
      <point x="47" y="725" type="line"/>
      <point x="164" y="725" type="line"/>
      <point x="178" y="707"/>
      <point x="253" y="632"/>
      <point x="350" y="538"/>
      <point x="457" y="435"/>
      <point x="554" y="341"/>
      <point x="626" y="267"/>
      <point x="640" y="250" type="qcurve"/>
      <point x="659" y="222" type="line"/>
      <point x="656" y="256" type="line"/>
      <point x="656" y="630" type="line"/>
      <point x="575" y="630" type="line"/>
      <point x="575" y="725" type="line"/>
      <point x="843" y="725" type="line"/>
      <point x="843" y="630" type="line"/>
      <point x="765" y="630" type="line"/>
      <point x="765" y="-33" type="line"/>
      <point x="751" y="-15"/>
      <point x="671" y="65"/>
      <point x="567" y="169"/>
      <point x="450" y="283"/>
      <point x="346" y="386"/>
      <point x="268" y="467"/>
      <point x="255" y="484" type="qcurve"/>
      <point x="236" y="510" type="line"/>
      <point x="239" y="478" type="line"/>
      <point x="239" y="95" type="line"/>
    </contour>
    <contour>
      <point x="401" y="806" type="qcurve"/>
      <point x="385" y="821"/>
      <point x="363" y="832"/>
      <point x="349" y="832" type="qcurve"/>
      <point x="335" y="832"/>
      <point x="299" y="814"/>
      <point x="296" y="786" type="qcurve"/>
      <point x="247" y="789" type="line"/>
      <point x="248" y="810"/>
      <point x="266" y="844"/>
      <point x="293" y="868"/>
      <point x="325" y="881"/>
      <point x="341" y="881" type="qcurve"/>
      <point x="365" y="881"/>
      <point x="403" y="863"/>
      <point x="419" y="847" type="qcurve"/>
      <point x="435" y="832"/>
      <point x="458" y="822"/>
      <point x="472" y="822" type="qcurve"/>
      <point x="479" y="822"/>
      <point x="496" y="826"/>
      <point x="511" y="836"/>
      <point x="523" y="854"/>
      <point x="525" y="868" type="qcurve"/>
      <point x="573" y="865" type="line"/>
      <point x="572" y="844"/>
      <point x="554" y="811"/>
      <point x="527" y="787"/>
      <point x="495" y="774"/>
      <point x="480" y="774" type="qcurve"/>
      <point x="457" y="774"/>
      <point x="418" y="791"/>
    </contour>
  </outline>
</glyph>
<glyph name="Oacute" format="1">
  <advance width="821"/>
  <unicode hex="00D3"/>
  <outline>
    <contour>
      <point x="40" y="362" type="qcurve"/>
      <point x="40" y="437"/>
      <point x="98" y="572"/>
      <point x="199" y="674"/>
      <point x="333" y="733"/>
      <point x="410" y="733" type="qcurve"/>
      <point x="486" y="733"/>
      <point x="621" y="674"/>
      <point x="722" y="572"/>
      <point x="781" y="437"/>
      <point x="781" y="362" type="qcurve"/>
      <point x="781" y="285"/>
      <point x="722" y="151"/>
      <point x="621" y="50"/>
      <point x="486" y="-8"/>
      <point x="410" y="-8" type="qcurve"/>
      <point x="333" y="-8"/>
      <point x="199" y="50"/>
      <point x="98" y="151"/>
      <point x="40" y="285"/>
    </contour>
    <contour>
      <point x="149" y="361" type="qcurve"/>
      <point x="149" y="306"/>
      <point x="190" y="209"/>
      <point x="262" y="137"/>
      <point x="358" y="95"/>
      <point x="412" y="95" type="qcurve"/>
      <point x="466" y="95"/>
      <point x="561" y="137"/>
      <point x="632" y="209"/>
      <point x="673" y="306"/>
      <point x="673" y="362" type="qcurve"/>
      <point x="673" y="417"/>
      <point x="632" y="514"/>
      <point x="560" y="586"/>
      <point x="465" y="628"/>
      <point x="411" y="628" type="qcurve"/>
      <point x="357" y="628"/>
      <point x="261" y="586"/>
      <point x="190" y="514"/>
      <point x="149" y="416"/>
    </contour>
    <contour>
      <point x="327" y="776" type="line"/>
      <point x="350" y="809"/>
      <point x="396" y="877"/>
      <point x="419" y="910" type="qcurve"/>
      <point x="511" y="910" type="line"/>
      <point x="392" y="776" type="line"/>
    </contour>
  </outline>
</glyph>
<glyph name="Odieresis" format="1">
  <advance width="821"/>
  <unicode hex="00D6"/>
  <outline>
    <contour>
      <point x="40" y="362" type="qcurve"/>
      <point x="40" y="437"/>
      <point x="98" y="572"/>
      <point x="199" y="674"/>
      <point x="333" y="733"/>
      <point x="410" y="733" type="qcurve"/>
      <point x="486" y="733"/>
      <point x="621" y="674"/>
      <point x="722" y="572"/>
      <point x="781" y="437"/>
      <point x="781" y="362" type="qcurve"/>
      <point x="781" y="285"/>
      <point x="722" y="151"/>
      <point x="621" y="50"/>
      <point x="486" y="-8"/>
      <point x="410" y="-8" type="qcurve"/>
      <point x="333" y="-8"/>
      <point x="199" y="50"/>
      <point x="98" y="151"/>
      <point x="40" y="285"/>
    </contour>
    <contour>
      <point x="149" y="361" type="qcurve"/>
      <point x="149" y="306"/>
      <point x="190" y="209"/>
      <point x="262" y="137"/>
      <point x="358" y="95"/>
      <point x="412" y="95" type="qcurve"/>
      <point x="466" y="95"/>
      <point x="561" y="137"/>
      <point x="632" y="209"/>
      <point x="673" y="306"/>
      <point x="673" y="362" type="qcurve"/>
      <point x="673" y="417"/>
      <point x="632" y="514"/>
      <point x="560" y="586"/>
      <point x="465" y="628"/>
      <point x="411" y="628" type="qcurve"/>
      <point x="357" y="628"/>
      <point x="261" y="586"/>
      <point x="190" y="514"/>
      <point x="149" y="416"/>
    </contour>
    <contour>
      <point x="451" y="831" type="qcurve"/>
      <point x="451" y="856"/>
      <point x="486" y="888"/>
      <point x="507" y="888" type="qcurve"/>
      <point x="527" y="888"/>
      <point x="562" y="856"/>
      <point x="562" y="831" type="qcurve"/>
      <point x="562" y="806"/>
      <point x="527" y="775"/>
      <point x="507" y="775" type="qcurve"/>
      <point x="486" y="775"/>
      <point x="451" y="806"/>
    </contour>
    <contour>
      <point x="261" y="831" type="qcurve"/>
      <point x="261" y="856"/>
      <point x="296" y="888"/>
      <point x="318" y="888" type="qcurve"/>
      <point x="338" y="888"/>
      <point x="373" y="856"/>
      <point x="373" y="831" type="qcurve"/>
      <point x="373" y="806"/>
      <point x="338" y="775"/>
      <point x="318" y="775" type="qcurve"/>
      <point x="296" y="775"/>
      <point x="261" y="806"/>
    </contour>
  </outline>
</glyph>
<glyph name="Uacute" format="1">
  <advance width="774"/>
  <unicode hex="00DA"/>
  <outline>
    <contour>
      <point x="298" y="725" type="line"/>
      <point x="298" y="630" type="line"/>
      <point x="221" y="630" type="line"/>
      <point x="221" y="259" type="line"/>
      <point x="221" y="224"/>
      <point x="246" y="165"/>
      <point x="291" y="120"/>
      <point x="352" y="95"/>
      <point x="387" y="95" type="qcurve"/>
      <point x="422" y="95"/>
      <point x="484" y="120"/>
      <point x="529" y="165"/>
      <point x="555" y="224"/>
      <point x="555" y="259" type="qcurve"/>
      <point x="555" y="725" type="line"/>
      <point x="742" y="725" type="line"/>
      <point x="742" y="630" type="line"/>
      <point x="664" y="630" type="line"/>
      <point x="664" y="256" type="line"/>
      <point x="664" y="196"/>
      <point x="621" y="99"/>
      <point x="546" y="30"/>
      <point x="445" y="-8"/>
      <point x="387" y="-8" type="qcurve"/>
      <point x="329" y="-8"/>
      <point x="229" y="30"/>
      <point x="155" y="99"/>
      <point x="112" y="196"/>
      <point x="112" y="256" type="qcurve"/>
      <point x="112" y="630" type="line"/>
      <point x="29" y="630" type="line"/>
      <point x="29" y="725" type="line"/>
    </contour>
    <contour>
      <point x="316" y="772" type="line"/>
      <point x="339" y="805"/>
      <point x="385" y="873"/>
      <point x="408" y="906" type="qcurve"/>
      <point x="500" y="906" type="line"/>
      <point x="381" y="772" type="line"/>
    </contour>
  </outline>
</glyph>
<glyph name="Ucircumflex" format="1">
  <advance width="774"/>
  <unicode hex="00DB"/>
  <outline>
    <contour>
      <point x="298" y="725" type="line"/>
      <point x="298" y="630" type="line"/>
      <point x="221" y="630" type="line"/>
      <point x="221" y="259" type="line"/>
      <point x="221" y="224"/>
      <point x="246" y="165"/>
      <point x="291" y="120"/>
      <point x="352" y="95"/>
      <point x="387" y="95" type="qcurve"/>
      <point x="422" y="95"/>
      <point x="484" y="120"/>
      <point x="529" y="165"/>
      <point x="555" y="224"/>
      <point x="555" y="259" type="qcurve"/>
      <point x="555" y="725" type="line"/>
      <point x="742" y="725" type="line"/>
      <point x="742" y="630" type="line"/>
      <point x="664" y="630" type="line"/>
      <point x="664" y="256" type="line"/>
      <point x="664" y="196"/>
      <point x="621" y="99"/>
      <point x="546" y="30"/>
      <point x="445" y="-8"/>
      <point x="387" y="-8" type="qcurve"/>
      <point x="329" y="-8"/>
      <point x="229" y="30"/>
      <point x="155" y="99"/>
      <point x="112" y="196"/>
      <point x="112" y="256" type="qcurve"/>
      <point x="112" y="630" type="line"/>
      <point x="29" y="630" type="line"/>
      <point x="29" y="725" type="line"/>
    </contour>
    <contour>
      <point x="389" y="955" type="qcurve"/>
      <point x="419" y="909"/>
      <point x="480" y="818"/>
      <point x="511" y="772" type="qcurve"/>
      <point x="447" y="772" type="line"/>
      <point x="443" y="778"/>
      <point x="427" y="799"/>
      <point x="409" y="822"/>
      <point x="393" y="844"/>
      <point x="389" y="850" type="qcurve"/>
      <point x="385" y="844"/>
      <point x="369" y="822"/>
      <point x="351" y="799"/>
      <point x="336" y="778"/>
      <point x="332" y="772" type="qcurve"/>
      <point x="267" y="772" type="line"/>
      <point x="298" y="818"/>
      <point x="359" y="909"/>
    </contour>
  </outline>
</glyph>
<glyph name="germandbls" format="1">
  <advance width="566"/>
  <unicode hex="00DF"/>
  <outline>
    <contour>
      <point x="224" y="8" type="qcurve"/>
      <point x="233" y="28"/>
      <point x="252" y="69"/>
      <point x="261" y="90" type="qcurve"/>
      <point x="286" y="80"/>
      <point x="309" y="80" type="qcurve"/>
      <point x="336" y="80"/>
      <point x="384" y="101"/>
      <point x="420" y="137"/>
      <point x="441" y="185"/>
      <point x="441" y="212" type="qcurve"/>
      <point x="441" y="239"/>
      <point x="419" y="287"/>
      <point x="383" y="323"/>
      <point x="335" y="343"/>
      <point x="308" y="342" type="qcurve"/>
      <point x="306" y="342" type="line"/>
      <point x="306" y="432" type="line"/>
      <point x="339" y="432"/>
      <point x="382" y="470"/>
      <point x="382" y="502" type="qcurve"/>
      <point x="382" y="534"/>
      <point x="337" y="577"/>
      <point x="292" y="577" type="qcurve"/>
      <point x="233" y="577"/>
      <point x="184" y="494"/>
      <point x="184" y="422" type="qcurve"/>
      <point x="184" y="0" type="line"/>
      <point x="93" y="0" type="line"/>
      <point x="93" y="335" type="line"/>
      <point x="29" y="335" type="line"/>
      <point x="29" y="424" type="line"/>
      <point x="93" y="424" type="line"/>
      <point x="93" y="429" type="line"/>
      <point x="93" y="484"/>
      <point x="122" y="572"/>
      <point x="175" y="633"/>
      <point x="247" y="666"/>
      <point x="289" y="666" type="qcurve"/>
      <point x="333" y="666"/>
      <point x="402" y="640"/>
      <point x="449" y="596"/>
      <point x="473" y="538"/>
      <point x="473" y="507" type="qcurve"/>
      <point x="473" y="472"/>
      <point x="444" y="409"/>
      <point x="413" y="395" type="qcurve"/>
      <point x="432" y="390"/>
      <point x="474" y="359"/>
      <point x="509" y="310"/>
      <point x="532" y="247"/>
      <point x="532" y="210" type="qcurve"/>
      <point x="532" y="165"/>
      <point x="496" y="86"/>
      <point x="435" y="26"/>
      <point x="354" y="-9"/>
      <point x="308" y="-9" type="qcurve"/>
      <point x="287" y="-9"/>
      <point x="243" y="-1"/>
    </contour>
  </outline>
</glyph>
<glyph name="agrave" format="1">
  <advance width="569"/>
  <unicode hex="00E0"/>
  <outline>
    <contour>
      <point x="481" y="74" type="line"/>
      <point x="540" y="74" type="line"/>
      <point x="540" y="0" type="line"/>
      <point x="395" y="0" type="line"/>
      <point x="395" y="53" type="line"/>
      <point x="390" y="45"/>
      <point x="368" y="23"/>
      <point x="333" y="4"/>
      <point x="285" y="-10"/>
      <point x="254" y="-10" type="qcurve"/>
      <point x="206" y="-10"/>
      <point x="125" y="25"/>
      <point x="66" y="84"/>
      <point x="34" y="162"/>
      <point x="34" y="205" type="qcurve"/>
      <point x="34" y="251"/>
      <point x="69" y="332"/>
      <point x="129" y="393"/>
      <point x="208" y="429"/>
      <point x="253" y="429" type="qcurve"/>
      <point x="283" y="429"/>
      <point x="333" y="414"/>
      <point x="369" y="392"/>
      <point x="391" y="368"/>
      <point x="395" y="359" type="qcurve"/>
      <point x="399" y="418" type="line"/>
      <point x="481" y="418" type="line"/>
    </contour>
    <contour>
      <point x="120" y="210" type="qcurve"/>
      <point x="120" y="181"/>
      <point x="140" y="131"/>
      <point x="177" y="95"/>
      <point x="227" y="74"/>
      <point x="257" y="74" type="qcurve"/>
      <point x="287" y="74"/>
      <point x="338" y="95"/>
      <point x="374" y="132"/>
      <point x="395" y="181"/>
      <point x="395" y="210" type="qcurve"/>
      <point x="395" y="239"/>
      <point x="374" y="288"/>
      <point x="338" y="324"/>
      <point x="287" y="345"/>
      <point x="257" y="345" type="qcurve"/>
      <point x="227" y="345"/>
      <point x="177" y="324"/>
      <point x="140" y="288"/>
      <point x="120" y="239"/>
    </contour>
    <contour>
      <point x="239" y="622" type="line"/>
      <point x="262" y="589"/>
      <point x="307" y="521"/>
      <point x="330" y="488" type="qcurve"/>
      <point x="266" y="488" type="line"/>
      <point x="236" y="521"/>
      <point x="176" y="589"/>
      <point x="147" y="622" type="qcurve"/>
    </contour>
  </outline>
</glyph>
<glyph name="adieresis" format="1">
  <advance width="569"/>
  <unicode hex="00E4"/>
  <outline>
    <contour>
      <point x="481" y="74" type="line"/>
      <point x="540" y="74" type="line"/>
      <point x="540" y="0" type="line"/>
      <point x="395" y="0" type="line"/>
      <point x="395" y="53" type="line"/>
      <point x="390" y="45"/>
      <point x="368" y="23"/>
      <point x="333" y="4"/>
      <point x="285" y="-10"/>
      <point x="254" y="-10" type="qcurve"/>
      <point x="206" y="-10"/>
      <point x="125" y="25"/>
      <point x="66" y="84"/>
      <point x="34" y="162"/>
      <point x="34" y="205" type="qcurve"/>
      <point x="34" y="251"/>
      <point x="69" y="332"/>
      <point x="129" y="393"/>
      <point x="208" y="429"/>
      <point x="253" y="429" type="qcurve"/>
      <point x="283" y="429"/>
      <point x="333" y="414"/>
      <point x="369" y="392"/>
      <point x="391" y="368"/>
      <point x="395" y="359" type="qcurve"/>
      <point x="399" y="418" type="line"/>
      <point x="481" y="418" type="line"/>
    </contour>
    <contour>
      <point x="120" y="210" type="qcurve"/>
      <point x="120" y="181"/>
      <point x="140" y="131"/>
      <point x="177" y="95"/>
      <point x="227" y="74"/>
      <point x="257" y="74" type="qcurve"/>
      <point x="287" y="74"/>
      <point x="338" y="95"/>
      <point x="374" y="132"/>
      <point x="395" y="181"/>
      <point x="395" y="210" type="qcurve"/>
      <point x="395" y="239"/>
      <point x="374" y="288"/>
      <point x="338" y="324"/>
      <point x="287" y="345"/>
      <point x="257" y="345" type="qcurve"/>
      <point x="227" y="345"/>
      <point x="177" y="324"/>
      <point x="140" y="288"/>
      <point x="120" y="239"/>
    </contour>
    <contour>
      <point x="114" y="529" type="qcurve"/>
      <point x="114" y="554"/>
      <point x="149" y="586"/>
      <point x="171" y="586" type="qcurve"/>
      <point x="191" y="586"/>
      <point x="226" y="554"/>
      <point x="226" y="529" type="qcurve"/>
      <point x="226" y="504"/>
      <point x="191" y="473"/>
      <point x="171" y="473" type="qcurve"/>
      <point x="149" y="473"/>
      <point x="114" y="504"/>
    </contour>
    <contour>
      <point x="304" y="529" type="qcurve"/>
      <point x="304" y="554"/>
      <point x="339" y="586"/>
      <point x="360" y="586" type="qcurve"/>
      <point x="380" y="586"/>
      <point x="415" y="554"/>
      <point x="415" y="529" type="qcurve"/>
      <point x="415" y="504"/>
      <point x="380" y="473"/>
      <point x="360" y="473" type="qcurve"/>
      <point x="339" y="473"/>
      <point x="304" y="504"/>
    </contour>
  </outline>
</glyph>
<glyph name="aring" format="1">
  <advance width="569"/>
  <unicode hex="00E5"/>
  <outline>
    <contour>
      <point x="481" y="74" type="line"/>
      <point x="540" y="74" type="line"/>
      <point x="540" y="0" type="line"/>
      <point x="395" y="0" type="line"/>
      <point x="395" y="53" type="line"/>
      <point x="390" y="45"/>
      <point x="368" y="23"/>
      <point x="333" y="4"/>
      <point x="285" y="-10"/>
      <point x="254" y="-10" type="qcurve"/>
      <point x="206" y="-10"/>
      <point x="125" y="25"/>
      <point x="66" y="84"/>
      <point x="34" y="162"/>
      <point x="34" y="205" type="qcurve"/>
      <point x="34" y="251"/>
      <point x="69" y="332"/>
      <point x="129" y="393"/>
      <point x="208" y="429"/>
      <point x="253" y="429" type="qcurve"/>
      <point x="283" y="429"/>
      <point x="333" y="414"/>
      <point x="369" y="392"/>
      <point x="391" y="368"/>
      <point x="395" y="359" type="qcurve"/>
      <point x="399" y="418" type="line"/>
      <point x="481" y="418" type="line"/>
    </contour>
    <contour>
      <point x="120" y="210" type="qcurve"/>
      <point x="120" y="181"/>
      <point x="140" y="131"/>
      <point x="177" y="95"/>
      <point x="227" y="74"/>
      <point x="257" y="74" type="qcurve"/>
      <point x="287" y="74"/>
      <point x="338" y="95"/>
      <point x="374" y="132"/>
      <point x="395" y="181"/>
      <point x="395" y="210" type="qcurve"/>
      <point x="395" y="239"/>
      <point x="374" y="288"/>
      <point x="338" y="324"/>
      <point x="287" y="345"/>
      <point x="257" y="345" type="qcurve"/>
      <point x="227" y="345"/>
      <point x="177" y="324"/>
      <point x="140" y="288"/>
      <point x="120" y="239"/>
    </contour>
    <contour>
      <point x="179" y="540" type="qcurve"/>
      <point x="179" y="557"/>
      <point x="193" y="588"/>
      <point x="216" y="611"/>
      <point x="247" y="624"/>
      <point x="265" y="624" type="qcurve"/>
      <point x="299" y="624"/>
      <point x="349" y="575"/>
      <point x="349" y="540" type="qcurve"/>
      <point x="349" y="522"/>
      <point x="335" y="491"/>
      <point x="312" y="468"/>
      <point x="282" y="454"/>
      <point x="265" y="454" type="qcurve"/>
      <point x="247" y="454"/>
      <point x="216" y="468"/>
      <point x="193" y="491"/>
      <point x="179" y="522"/>
    </contour>
    <contour>
      <point x="230" y="538" type="qcurve"/>
      <point x="230" y="524"/>
      <point x="250" y="504"/>
      <point x="265" y="504" type="qcurve"/>
      <point x="279" y="504"/>
      <point x="300" y="524"/>
      <point x="300" y="538" type="qcurve"/>
      <point x="300" y="554"/>
      <point x="279" y="574"/>
      <point x="265" y="574" type="qcurve"/>
      <point x="250" y="574"/>
      <point x="230" y="554"/>
    </contour>
  </outline>
</glyph>
<glyph name="ae" format="1">
  <advance width="700"/>
  <unicode hex="00E6"/>
  <outline>
    <contour>
      <point x="649" y="49" type="line"/>
      <point x="619" y="22"/>
      <point x="533" y="-10"/>
      <point x="488" y="-10" type="qcurve"/>
      <point x="444" y="-10"/>
      <point x="367" y="20"/>
      <point x="338" y="47" type="qcurve"/>
      <point x="311" y="21"/>
      <point x="229" y="-8"/>
      <point x="180" y="-8" type="qcurve"/>
      <point x="139" y="-8"/>
      <point x="82" y="12"/>
      <point x="47" y="45"/>
      <point x="31" y="88"/>
      <point x="31" y="112" type="qcurve"/>
      <point x="31" y="145"/>
      <point x="57" y="191"/>
      <point x="97" y="221"/>
      <point x="146" y="235"/>
      <point x="169" y="235" type="qcurve"/>
      <point x="267" y="235" type="line"/>
      <point x="273" y="276"/>
      <point x="293" y="315" type="qcurve"/>
      <point x="272" y="345"/>
      <point x="209" y="345" type="qcurve"/>
      <point x="169" y="345"/>
      <point x="108" y="327"/>
      <point x="85" y="314" type="qcurve"/>
      <point x="50" y="380" type="line"/>
      <point x="83" y="403"/>
      <point x="170" y="429"/>
      <point x="220" y="429" type="qcurve"/>
      <point x="264" y="429"/>
      <point x="330" y="404"/>
      <point x="349" y="381" type="qcurve"/>
      <point x="378" y="404"/>
      <point x="447" y="429"/>
      <point x="485" y="429" type="qcurve"/>
      <point x="556" y="429"/>
      <point x="661" y="344"/>
      <point x="684" y="275" type="qcurve"/>
      <point x="653" y="264"/>
      <point x="573" y="232"/>
      <point x="487" y="197"/>
      <point x="401" y="163"/>
      <point x="364" y="149" type="qcurve"/>
      <point x="381" y="115"/>
      <point x="446" y="74"/>
      <point x="486" y="74" type="qcurve"/>
      <point x="513" y="74"/>
      <point x="568" y="94"/>
      <point x="585" y="111" type="qcurve"/>
    </contour>
    <contour>
      <point x="577" y="295" type="qcurve"/>
      <point x="565" y="320"/>
      <point x="513" y="345"/>
      <point x="486" y="345" type="qcurve"/>
      <point x="457" y="345"/>
      <point x="408" y="323"/>
      <point x="372" y="286"/>
      <point x="351" y="238"/>
      <point x="351" y="213" type="qcurve"/>
      <point x="351" y="208"/>
      <point x="352" y="204"/>
      <point x="352" y="203" type="qcurve"/>
      <point x="378" y="213"/>
      <point x="439" y="238"/>
      <point x="499" y="263"/>
      <point x="555" y="286"/>
    </contour>
    <contour>
      <point x="110" y="120" type="qcurve"/>
      <point x="110" y="93"/>
      <point x="155" y="74"/>
      <point x="186" y="74" type="qcurve"/>
      <point x="212" y="74"/>
      <point x="273" y="83"/>
      <point x="296" y="99" type="qcurve"/>
      <point x="275" y="132"/>
      <point x="269" y="173" type="qcurve"/>
      <point x="214" y="173" type="line"/>
      <point x="184" y="173"/>
      <point x="144" y="165"/>
      <point x="120" y="150"/>
      <point x="110" y="131"/>
    </contour>
  </outline>
</glyph>
<glyph name="iacute" format="1">
  <advance width="274"/>
  <unicode hex="00ED"/>
  <outline>
    <contour>
      <point x="183" y="418" type="line"/>
      <point x="183" y="74" type="line"/>
      <point x="249" y="74" type="line"/>
      <point x="249" y="0" type="line"/>
      <point x="39" y="0" type="line"/>
      <point x="39" y="74" type="line"/>
      <point x="98" y="74" type="line"/>
      <point x="98" y="344" type="line"/>
      <point x="39" y="344" type="line"/>
      <point x="39" y="418" type="line"/>
    </contour>
    <contour>
      <point x="71" y="486" type="line"/>
      <point x="94" y="519"/>
      <point x="140" y="587"/>
      <point x="163" y="620" type="qcurve"/>
      <point x="255" y="620" type="line"/>
      <point x="136" y="486" type="line"/>
    </contour>
  </outline>
</glyph>
<glyph name="idieresis" format="1">
  <advance width="274"/>
  <unicode hex="00EF"/>
  <outline>
    <contour>
      <point x="183" y="418" type="line"/>
      <point x="183" y="74" type="line"/>
      <point x="249" y="74" type="line"/>
      <point x="249" y="0" type="line"/>
      <point x="39" y="0" type="line"/>
      <point x="39" y="74" type="line"/>
      <point x="98" y="74" type="line"/>
      <point x="98" y="344" type="line"/>
      <point x="39" y="344" type="line"/>
      <point x="39" y="418" type="line"/>
    </contour>
    <contour>
      <point x="-12" y="529" type="qcurve"/>
      <point x="-12" y="554"/>
      <point x="23" y="586"/>
      <point x="45" y="586" type="qcurve"/>
      <point x="65" y="586"/>
      <point x="100" y="554"/>
      <point x="100" y="529" type="qcurve"/>
      <point x="100" y="504"/>
      <point x="65" y="473"/>
      <point x="45" y="473" type="qcurve"/>
      <point x="23" y="473"/>
      <point x="-12" y="504"/>
    </contour>
    <contour>
      <point x="178" y="529" type="qcurve"/>
      <point x="178" y="554"/>
      <point x="213" y="586"/>
      <point x="234" y="586" type="qcurve"/>
      <point x="254" y="586"/>
      <point x="289" y="554"/>
      <point x="289" y="529" type="qcurve"/>
      <point x="289" y="504"/>
      <point x="254" y="473"/>
      <point x="234" y="473" type="qcurve"/>
      <point x="213" y="473"/>
      <point x="178" y="504"/>
    </contour>
  </outline>
</glyph>
<glyph name="ntilde" format="1">
  <advance width="574"/>
  <unicode hex="00F1"/>
  <outline>
    <contour>
      <point x="489" y="304" type="qcurve"/>
      <point x="489" y="74" type="line"/>
      <point x="548" y="74" type="line"/>
      <point x="548" y="0" type="line"/>
      <point x="338" y="0" type="line"/>
      <point x="338" y="74" type="line"/>
      <point x="404" y="74" type="line"/>
      <point x="404" y="265" type="line"/>
      <point x="402" y="297"/>
      <point x="361" y="342"/>
      <point x="319" y="344" type="qcurve"/>
      <point x="289" y="344"/>
      <point x="239" y="323"/>
      <point x="202" y="287"/>
      <point x="182" y="237"/>
      <point x="182" y="207" type="qcurve"/>
      <point x="182" y="74" type="line"/>
      <point x="248" y="74" type="line"/>
      <point x="248" y="0" type="line"/>
      <point x="38" y="0" type="line"/>
      <point x="38" y="74" type="line"/>
      <point x="97" y="74" type="line"/>
      <point x="97" y="344" type="line"/>
      <point x="38" y="344" type="line"/>
      <point x="38" y="418" type="line"/>
      <point x="171" y="418" type="line"/>
      <point x="179" y="311" type="line"/>
      <point x="202" y="365"/>
      <point x="286" y="429"/>
      <point x="349" y="429" type="qcurve"/>
      <point x="412" y="429"/>
      <point x="487" y="359"/>
    </contour>
    <contour>
      <point x="303" y="509" type="qcurve"/>
      <point x="287" y="524"/>
      <point x="265" y="535"/>
      <point x="251" y="535" type="qcurve"/>
      <point x="237" y="535"/>
      <point x="201" y="517"/>
      <point x="198" y="489" type="qcurve"/>
      <point x="149" y="492" type="line"/>
      <point x="150" y="513"/>
      <point x="168" y="547"/>
      <point x="195" y="571"/>
      <point x="227" y="584"/>
      <point x="243" y="584" type="qcurve"/>
      <point x="267" y="584"/>
      <point x="305" y="566"/>
      <point x="321" y="550" type="qcurve"/>
      <point x="337" y="535"/>
      <point x="360" y="525"/>
      <point x="374" y="525" type="qcurve"/>
      <point x="381" y="525"/>
      <point x="398" y="529"/>
      <point x="413" y="539"/>
      <point x="425" y="557"/>
      <point x="427" y="571" type="qcurve"/>
      <point x="475" y="568" type="line"/>
      <point x="474" y="547"/>
      <point x="456" y="514"/>
      <point x="429" y="490"/>
      <point x="397" y="477"/>
      <point x="382" y="477" type="qcurve"/>
      <point x="359" y="477"/>
      <point x="320" y="494"/>
    </contour>
  </outline>
</glyph>
<glyph name="ucircumflex" format="1">
  <advance width="563"/>
  <unicode hex="00FB"/>
  <outline>
    <contour>
      <point x="391" y="212" type="qcurve"/>
      <point x="391" y="344" type="line"/>
      <point x="325" y="344" type="line"/>
      <point x="325" y="418" type="line"/>
      <point x="476" y="418" type="line"/>
      <point x="476" y="74" type="line"/>
      <point x="535" y="74" type="line"/>
      <point x="535" y="0" type="line"/>
      <point x="405" y="0" type="line"/>
      <point x="395" y="107" type="line"/>
      <point x="372" y="56"/>
      <point x="289" y="-10"/>
      <point x="225" y="-10" type="qcurve"/>
      <point x="161" y="-10"/>
      <point x="86" y="59"/>
      <point x="84" y="115" type="qcurve"/>
      <point x="84" y="344" type="line"/>
      <point x="25" y="344" type="line"/>
      <point x="25" y="418" type="line"/>
      <point x="169" y="418" type="line"/>
      <point x="169" y="153" type="line"/>
      <point x="171" y="122"/>
      <point x="212" y="78"/>
      <point x="255" y="75" type="qcurve"/>
      <point x="285" y="75"/>
      <point x="335" y="96"/>
      <point x="371" y="132"/>
      <point x="391" y="182"/>
    </contour>
    <contour>
      <point x="280" y="630" type="qcurve"/>
      <point x="306" y="600"/>
      <point x="329" y="573" type="qcurve"/>
      <point x="349" y="550"/>
      <point x="389" y="501"/>
      <point x="402" y="486" type="qcurve"/>
      <point x="338" y="486" type="line"/>
      <point x="280" y="539" type="line"/>
      <point x="223" y="486" type="line"/>
      <point x="158" y="486" type="line"/>
      <point x="169" y="500"/>
      <point x="211" y="550"/>
      <point x="231" y="573" type="qcurve"/>
      <point x="255" y="600"/>
    </contour>
  </outline>
</glyph>
<glyph name="yacute" format="1">
  <advance width="547"/>
  <unicode hex="00FD"/>
  <outline>
    <contour>
      <point x="85" y="-127" type="line"/>
      <point x="159" y="-127" type="line"/>
      <point x="177" y="-88"/>
      <point x="215" y="-6"/>
      <point x="231" y="26" type="qcurve"/>
      <point x="219" y="50"/>
      <point x="181" y="127"/>
      <point x="139" y="216"/>
      <point x="95" y="307"/>
      <point x="76" y="346" type="qcurve"/>
      <point x="9" y="346" type="line"/>
      <point x="9" y="419" type="line"/>
      <point x="226" y="419" type="line"/>
      <point x="226" y="346" type="line"/>
      <point x="169" y="346" type="line"/>
      <point x="191" y="300"/>
      <point x="230" y="219"/>
      <point x="258" y="155"/>
      <point x="274" y="113"/>
      <point x="274" y="107" type="qcurve"/>
      <point x="274" y="113"/>
      <point x="290" y="155"/>
      <point x="318" y="218"/>
      <point x="356" y="300"/>
      <point x="378" y="345" type="qcurve"/>
      <point x="323" y="345" type="line"/>
      <point x="323" y="419" type="line"/>
      <point x="538" y="419" type="line"/>
      <point x="538" y="345" type="line"/>
      <point x="471" y="345" type="line"/>
      <point x="243" y="-127" type="line"/>
      <point x="316" y="-127" type="line"/>
      <point x="316" y="-201" type="line"/>
      <point x="85" y="-201" type="line"/>
    </contour>
    <contour>
      <point x="228" y="486" type="line"/>
      <point x="251" y="519"/>
      <point x="297" y="587"/>
      <point x="320" y="620" type="qcurve"/>
      <point x="412" y="620" type="line"/>
      <point x="293" y="486" type="line"/>
    </contour>
  </outline>
</glyph>
<glyph name="Abreve" format="1">
  <advance width="747"/>
  <unicode hex="0102"/>
  <outline>
    <contour>
      <point x="4" y="95" type="line"/>
      <point x="4" y="0" type="line"/>
      <point x="273" y="0" type="line"/>
      <point x="273" y="95" type="line"/>
      <point x="198" y="95" type="line"/>
      <point x="244" y="208" type="line"/>
      <point x="502" y="208" type="line"/>
      <point x="548" y="95" type="line"/>
      <point x="474" y="95" type="line"/>
      <point x="474" y="0" type="line"/>
      <point x="743" y="0" type="line"/>
      <point x="743" y="95" type="line"/>
      <point x="655" y="95" type="line"/>
      <point x="374" y="759" type="line"/>
      <point x="91" y="95" type="line"/>
    </contour>
    <contour>
      <point x="375" y="772" type="qcurve"/>
      <point x="342" y="772"/>
      <point x="283" y="796"/>
      <point x="239" y="838"/>
      <point x="213" y="896"/>
      <point x="212" y="929" type="qcurve"/>
      <point x="261" y="929" type="line"/>
      <point x="263" y="881"/>
      <point x="326" y="820"/>
      <point x="375" y="820" type="qcurve"/>
      <point x="424" y="820"/>
      <point x="485" y="881"/>
      <point x="487" y="929" type="qcurve"/>
      <point x="536" y="929" type="line"/>
      <point x="536" y="896"/>
      <point x="510" y="838"/>
      <point x="466" y="796"/>
      <point x="408" y="772"/>
    </contour>
    <contour>
      <point x="363" y="494" type="line"/>
      <point x="365" y="501"/>
      <point x="367" y="507" type="qcurve"/>
      <point x="369" y="512"/>
      <point x="372" y="525"/>
      <point x="374" y="530" type="qcurve"/>
      <point x="375" y="525"/>
      <point x="378" y="512"/>
      <point x="380" y="507" type="qcurve"/>
      <point x="382" y="501"/>
      <point x="384" y="494" type="qcurve"/>
      <point x="464" y="300" type="line"/>
      <point x="282" y="300" type="line"/>
    </contour>
  </outline>
</glyph>
<glyph name="aogonek" format="1">
  <advance width="568"/>
  <unicode hex="0105"/>
  <outline>
    <contour>
      <point x="481" y="74" type="line"/>
      <point x="540" y="74" type="line"/>
      <point x="540" y="0" type="line"/>
      <point x="395" y="0" type="line"/>
      <point x="395" y="53" type="line"/>
      <point x="390" y="45"/>
      <point x="368" y="23"/>
      <point x="333" y="4"/>
      <point x="285" y="-10"/>
      <point x="254" y="-10" type="qcurve"/>
      <point x="206" y="-10"/>
      <point x="125" y="25"/>
      <point x="66" y="84"/>
      <point x="34" y="162"/>
      <point x="34" y="205" type="qcurve"/>
      <point x="34" y="251"/>
      <point x="69" y="332"/>
      <point x="129" y="393"/>
      <point x="208" y="429"/>
      <point x="253" y="429" type="qcurve"/>
      <point x="283" y="429"/>
      <point x="333" y="414"/>
      <point x="369" y="392"/>
      <point x="391" y="368"/>
      <point x="395" y="359" type="qcurve"/>
      <point x="399" y="418" type="line"/>
      <point x="481" y="418" type="line"/>
    </contour>
    <contour>
      <point x="120" y="210" type="qcurve"/>
      <point x="120" y="181"/>
      <point x="140" y="131"/>
      <point x="177" y="95"/>
      <point x="227" y="74"/>
      <point x="257" y="74" type="qcurve"/>
      <point x="287" y="74"/>
      <point x="338" y="95"/>
      <point x="374" y="132"/>
      <point x="395" y="181"/>
      <point x="395" y="210" type="qcurve"/>
      <point x="395" y="239"/>
      <point x="374" y="288"/>
      <point x="338" y="324"/>
      <point x="287" y="345"/>
      <point x="257" y="345" type="qcurve"/>
      <point x="227" y="345"/>
      <point x="177" y="324"/>
      <point x="140" y="288"/>
      <point x="120" y="239"/>
    </contour>
    <contour>
      <point x="449" y="0" type="line"/>
      <point x="393" y="0" type="line"/>
      <point x="393" y="-7" type="line"/>
      <point x="393" y="-22"/>
      <point x="385" y="-39"/>
      <point x="372" y="-50"/>
      <point x="357" y="-57"/>
      <point x="351" y="-62" type="qcurve"/>
      <point x="330" y="-78"/>
      <point x="312" y="-119"/>
      <point x="312" y="-146" type="qcurve"/>
      <point x="312" y="-167"/>
      <point x="326" y="-206"/>
      <point x="353" y="-238"/>
      <point x="395" y="-257"/>
      <point x="422" y="-257" type="qcurve"/>
      <point x="457" y="-257"/>
      <point x="515" y="-218"/>
      <point x="529" y="-178" type="qcurve"/>
      <point x="517" y="-172"/>
      <point x="491" y="-159"/>
      <point x="479" y="-152" type="qcurve"/>
      <point x="474" y="-168"/>
      <point x="449" y="-189"/>
      <point x="429" y="-189" type="qcurve"/>
      <point x="405" y="-189"/>
      <point x="380" y="-157"/>
      <point x="380" y="-134" type="qcurve"/>
      <point x="380" y="-114"/>
      <point x="402" y="-91"/>
      <point x="427" y="-73"/>
      <point x="449" y="-53"/>
      <point x="449" y="-36" type="qcurve"/>
    </contour>
  </outline>
</glyph>
<glyph name="Ccircumflex" format="1">
  <advance width="654"/>
  <unicode hex="0108"/>
  <outline>
    <contour>
      <point x="508" y="546" type="line"/>
      <point x="508" y="619" type="line"/>
      <point x="485" y="624"/>
      <point x="439" y="630"/>
      <point x="420" y="630" type="qcurve"/>
      <point x="362" y="630"/>
      <point x="263" y="587"/>
      <point x="191" y="514"/>
      <point x="150" y="418"/>
      <point x="150" y="366" type="qcurve"/>
      <point x="150" y="315"/>
      <point x="188" y="221"/>
      <point x="258" y="147"/>
      <point x="355" y="103"/>
      <point x="414" y="103" type="qcurve"/>
      <point x="445" y="103"/>
      <point x="503" y="115"/>
      <point x="549" y="131"/>
      <point x="580" y="147"/>
      <point x="583" y="151" type="qcurve"/>
      <point x="629" y="52" type="line"/>
      <point x="617" y="43"/>
      <point x="574" y="22"/>
      <point x="516" y="4"/>
      <point x="446" y="-8"/>
      <point x="407" y="-8" type="qcurve"/>
      <point x="321" y="-8"/>
      <point x="185" y="51"/>
      <point x="91" y="150"/>
      <point x="41" y="282"/>
      <point x="41" y="356" type="qcurve"/>
      <point x="41" y="438"/>
      <point x="101" y="576"/>
      <point x="202" y="677"/>
      <point x="337" y="733"/>
      <point x="412" y="733" type="qcurve"/>
      <point x="444" y="733"/>
      <point x="506" y="723"/>
      <point x="559" y="708"/>
      <point x="599" y="690"/>
      <point x="610" y="682" type="qcurve"/>
      <point x="610" y="546" type="line"/>
    </contour>
    <contour>
      <point x="415" y="917" type="qcurve"/>
      <point x="441" y="887"/>
      <point x="464" y="860" type="qcurve"/>
      <point x="484" y="837"/>
      <point x="524" y="788"/>
      <point x="537" y="773" type="qcurve"/>
      <point x="473" y="773" type="line"/>
      <point x="415" y="826" type="line"/>
      <point x="358" y="773" type="line"/>
      <point x="293" y="773" type="line"/>
      <point x="304" y="787"/>
      <point x="346" y="837"/>
      <point x="366" y="860" type="qcurve"/>
      <point x="390" y="887"/>
    </contour>
  </outline>
</glyph>
<glyph name="Dcaron" format="1">
  <advance width="755"/>
  <unicode hex="010E"/>
  <outline>
    <contour>
      <point x="313" y="725" type="line"/>
      <point x="422" y="725"/>
      <point x="575" y="659"/>
      <point x="670" y="552"/>
      <point x="713" y="419"/>
      <point x="713" y="353" type="qcurve"/>
      <point x="713" y="272"/>
      <point x="654" y="141"/>
      <point x="554" y="49"/>
      <point x="422" y="0"/>
      <point x="348" y="0" type="qcurve"/>
      <point x="51" y="0" type="line"/>
      <point x="51" y="95" type="line"/>
      <point x="130" y="95" type="line"/>
      <point x="130" y="630" type="line"/>
      <point x="51" y="630" type="line"/>
      <point x="51" y="725" type="line"/>
    </contour>
    <contour>
      <point x="332" y="104" type="line"/>
      <point x="390" y="104"/>
      <point x="489" y="138"/>
      <point x="562" y="203"/>
      <point x="603" y="298"/>
      <point x="603" y="360" type="qcurve"/>
      <point x="603" y="426"/>
      <point x="557" y="524"/>
      <point x="483" y="589"/>
      <point x="390" y="620"/>
      <point x="342" y="620" type="qcurve"/>
      <point x="239" y="620" type="line"/>
      <point x="239" y="104" type="line"/>
    </contour>
    <contour>
      <point x="349" y="772" type="qcurve"/>
      <point x="324" y="802"/>
      <point x="300" y="829" type="qcurve"/>
      <point x="280" y="852"/>
      <point x="238" y="901"/>
      <point x="227" y="916" type="qcurve"/>
      <point x="292" y="916" type="line"/>
      <point x="349" y="863" type="line"/>
      <point x="407" y="916" type="line"/>
      <point x="471" y="916" type="line"/>
      <point x="458" y="900"/>
      <point x="418" y="852"/>
      <point x="398" y="829" type="qcurve"/>
      <point x="375" y="802"/>
    </contour>
  </outline>
</glyph>
<glyph name="Dcroat" format="1">
  <advance width="756"/>
  <unicode hex="0110"/>
  <outline>
    <contour>
      <point x="53" y="410" type="line"/>
      <point x="131" y="410" type="line"/>
      <point x="131" y="630" type="line"/>
      <point x="52" y="630" type="line"/>
      <point x="52" y="725" type="line"/>
      <point x="314" y="725" type="line"/>
      <point x="423" y="725"/>
      <point x="576" y="659"/>
      <point x="671" y="552"/>
      <point x="714" y="419"/>
      <point x="714" y="353" type="qcurve"/>
      <point x="714" y="272"/>
      <point x="655" y="141"/>
      <point x="555" y="49"/>
      <point x="423" y="0"/>
      <point x="349" y="0" type="qcurve"/>
      <point x="52" y="0" type="line"/>
      <point x="52" y="95" type="line"/>
      <point x="131" y="95" type="line"/>
      <point x="131" y="337" type="line"/>
      <point x="53" y="337" type="line"/>
    </contour>
    <contour>
      <point x="333" y="104" type="line"/>
      <point x="391" y="104"/>
      <point x="490" y="138"/>
      <point x="563" y="203"/>
      <point x="604" y="298"/>
      <point x="604" y="360" type="qcurve"/>
      <point x="604" y="426"/>
      <point x="558" y="524"/>
      <point x="484" y="589"/>
      <point x="391" y="620"/>
      <point x="343" y="620" type="qcurve"/>
      <point x="240" y="620" type="line"/>
      <point x="240" y="410" type="line"/>
      <point x="353" y="410" type="line"/>
      <point x="353" y="337" type="line"/>
      <point x="240" y="337" type="line"/>
      <point x="240" y="104" type="line"/>
    </contour>
  </outline>
</glyph>
<glyph name="Eogonek" format="1">
  <advance width="664"/>
  <unicode hex="0118"/>
  <outline>
    <contour>
      <point x="502" y="555" type="line"/>
      <point x="502" y="626" type="line"/>
      <point x="238" y="626" type="line"/>
      <point x="238" y="414" type="line"/>
      <point x="564" y="414" type="line"/>
      <point x="564" y="313" type="line"/>
      <point x="238" y="313" type="line"/>
      <point x="238" y="101" type="line"/>
      <point x="516" y="101" type="line"/>
      <point x="516" y="178" type="line"/>
      <point x="619" y="178" type="line"/>
      <point x="619" y="0" type="line"/>
      <point x="50" y="0" type="line"/>
      <point x="50" y="95" type="line"/>
      <point x="129" y="95" type="line"/>
      <point x="129" y="630" type="line"/>
      <point x="50" y="630" type="line"/>
      <point x="50" y="725" type="line"/>
      <point x="605" y="725" type="line"/>
      <point x="605" y="555" type="line"/>
    </contour>
    <contour>
      <point x="618" y="0" type="line"/>
      <point x="562" y="0" type="line"/>
      <point x="562" y="-7" type="line"/>
      <point x="562" y="-22"/>
      <point x="554" y="-39"/>
      <point x="541" y="-50"/>
      <point x="526" y="-57"/>
      <point x="520" y="-62" type="qcurve"/>
      <point x="499" y="-78"/>
      <point x="481" y="-119"/>
      <point x="481" y="-146" type="qcurve"/>
      <point x="481" y="-167"/>
      <point x="495" y="-206"/>
      <point x="522" y="-238"/>
      <point x="564" y="-257"/>
      <point x="591" y="-257" type="qcurve"/>
      <point x="626" y="-257"/>
      <point x="684" y="-218"/>
      <point x="698" y="-178" type="qcurve"/>
      <point x="686" y="-172"/>
      <point x="660" y="-159"/>
      <point x="648" y="-152" type="qcurve"/>
      <point x="643" y="-168"/>
      <point x="618" y="-189"/>
      <point x="598" y="-189" type="qcurve"/>
      <point x="574" y="-189"/>
      <point x="549" y="-157"/>
      <point x="549" y="-134" type="qcurve"/>
      <point x="549" y="-114"/>
      <point x="571" y="-91"/>
      <point x="596" y="-73"/>
      <point x="618" y="-53"/>
      <point x="618" y="-36" type="qcurve"/>
    </contour>
  </outline>
</glyph>
<glyph name="Gbreve" format="1">
  <advance width="695"/>
  <unicode hex="011E"/>
  <outline>
    <contour>
      <point x="527" y="546" type="line"/>
      <point x="527" y="612" type="line"/>
      <point x="501" y="620"/>
      <point x="444" y="630"/>
      <point x="419" y="630" type="qcurve"/>
      <point x="366" y="630"/>
      <point x="268" y="587"/>
      <point x="194" y="514"/>
      <point x="150" y="415"/>
      <point x="150" y="358" type="qcurve"/>
      <point x="150" y="304"/>
      <point x="189" y="209"/>
      <point x="259" y="137"/>
      <point x="357" y="95"/>
      <point x="416" y="95" type="qcurve"/>
      <point x="437" y="95"/>
      <point x="504" y="104"/>
      <point x="531" y="115" type="qcurve"/>
      <point x="531" y="253" type="line"/>
      <point x="390" y="253" type="line"/>
      <point x="390" y="347" type="line"/>
      <point x="632" y="347" type="line"/>
      <point x="632" y="43" type="line"/>
      <point x="590" y="19"/>
      <point x="475" y="-8"/>
      <point x="415" y="-8" type="qcurve"/>
      <point x="329" y="-8"/>
      <point x="191" y="46"/>
      <point x="93" y="141"/>
      <point x="41" y="272"/>
      <point x="41" y="349" type="qcurve"/>
      <point x="41" y="433"/>
      <point x="103" y="574"/>
      <point x="207" y="676"/>
      <point x="343" y="733"/>
      <point x="417" y="733" type="qcurve"/>
      <point x="445" y="733"/>
      <point x="504" y="725"/>
      <point x="561" y="711"/>
      <point x="611" y="692"/>
      <point x="629" y="681" type="qcurve"/>
      <point x="629" y="546" type="line"/>
    </contour>
    <contour>
      <point x="405" y="772" type="qcurve"/>
      <point x="372" y="772"/>
      <point x="313" y="796"/>
      <point x="269" y="838"/>
      <point x="243" y="896"/>
      <point x="242" y="929" type="qcurve"/>
      <point x="291" y="929" type="line"/>
      <point x="293" y="881"/>
      <point x="356" y="820"/>
      <point x="405" y="820" type="qcurve"/>
      <point x="454" y="820"/>
      <point x="515" y="881"/>
      <point x="517" y="929" type="qcurve"/>
      <point x="566" y="929" type="line"/>
      <point x="566" y="896"/>
      <point x="540" y="838"/>
      <point x="496" y="796"/>
      <point x="438" y="772"/>
    </contour>
  </outline>
</glyph>
<glyph name="Hcircumflex" format="1">
  <advance width="841"/>
  <unicode hex="0124"/>
  <outline>
    <contour>
      <point x="320" y="725" type="line"/>
      <point x="320" y="630" type="line"/>
      <point x="239" y="630" type="line"/>
      <point x="239" y="417" type="line"/>
      <point x="602" y="417" type="line"/>
      <point x="602" y="630" type="line"/>
      <point x="521" y="630" type="line"/>
      <point x="521" y="725" type="line"/>
      <point x="790" y="725" type="line"/>
      <point x="790" y="630" type="line"/>
      <point x="711" y="630" type="line"/>
      <point x="711" y="95" type="line"/>
      <point x="790" y="95" type="line"/>
      <point x="790" y="0" type="line"/>
      <point x="521" y="0" type="line"/>
      <point x="521" y="95" type="line"/>
      <point x="602" y="95" type="line"/>
      <point x="602" y="313" type="line"/>
      <point x="239" y="313" type="line"/>
      <point x="239" y="95" type="line"/>
      <point x="320" y="95" type="line"/>
      <point x="320" y="0" type="line"/>
      <point x="51" y="0" type="line"/>
      <point x="51" y="95" type="line"/>
      <point x="130" y="95" type="line"/>
      <point x="130" y="630" type="line"/>
      <point x="51" y="630" type="line"/>
      <point x="51" y="725" type="line"/>
    </contour>
    <contour>
      <point x="421" y="917" type="qcurve"/>
      <point x="447" y="887"/>
      <point x="470" y="860" type="qcurve"/>
      <point x="490" y="837"/>
      <point x="530" y="788"/>
      <point x="543" y="773" type="qcurve"/>
      <point x="479" y="773" type="line"/>
      <point x="421" y="826" type="line"/>
      <point x="364" y="773" type="line"/>
      <point x="299" y="773" type="line"/>
      <point x="310" y="787"/>
      <point x="352" y="837"/>
      <point x="372" y="860" type="qcurve"/>
      <point x="396" y="887"/>
    </contour>
  </outline>
</glyph>
<glyph name="hcircumflex" format="1">
  <advance width="566"/>
  <unicode hex="0125"/>
  <outline>
    <contour>
      <point x="479" y="304" type="qcurve"/>
      <point x="479" y="74" type="line"/>
      <point x="538" y="74" type="line"/>
      <point x="538" y="0" type="line"/>
      <point x="328" y="0" type="line"/>
      <point x="328" y="74" type="line"/>
      <point x="394" y="74" type="line"/>
      <point x="394" y="265" type="line"/>
      <point x="392" y="297"/>
      <point x="351" y="342"/>
      <point x="309" y="344" type="qcurve"/>
      <point x="279" y="344"/>
      <point x="229" y="323"/>
      <point x="192" y="287"/>
      <point x="172" y="237"/>
      <point x="172" y="207" type="qcurve"/>
      <point x="172" y="74" type="line"/>
      <point x="238" y="74" type="line"/>
      <point x="238" y="0" type="line"/>
      <point x="28" y="0" type="line"/>
      <point x="28" y="74" type="line"/>
      <point x="87" y="74" type="line"/>
      <point x="87" y="703" type="line"/>
      <point x="28" y="703" type="line"/>
      <point x="28" y="777" type="line"/>
      <point x="169" y="777" type="line"/>
      <point x="169" y="311" type="line"/>
      <point x="192" y="365"/>
      <point x="276" y="429"/>
      <point x="339" y="429" type="qcurve"/>
      <point x="402" y="429"/>
      <point x="477" y="359"/>
    </contour>
    <contour>
      <point x="305" y="951" type="qcurve"/>
      <point x="335" y="905"/>
      <point x="396" y="814"/>
      <point x="427" y="768" type="qcurve"/>
      <point x="363" y="768" type="line"/>
      <point x="359" y="774"/>
      <point x="343" y="795"/>
      <point x="325" y="818"/>
      <point x="309" y="840"/>
      <point x="305" y="846" type="qcurve"/>
      <point x="301" y="840"/>
      <point x="285" y="818"/>
      <point x="267" y="795"/>
      <point x="252" y="774"/>
      <point x="248" y="768" type="qcurve"/>
      <point x="183" y="768" type="line"/>
      <point x="214" y="814"/>
      <point x="275" y="905"/>
    </contour>
  </outline>
</glyph>
<glyph name="hbar" format="1">
  <advance width="566"/>
  <unicode hex="0127"/>
  <outline>
    <contour>
      <point x="28" y="777" type="line"/>
      <point x="169" y="777" type="line"/>
      <point x="169" y="607" type="line"/>
      <point x="293" y="607" type="line"/>
      <point x="293" y="549" type="line"/>
      <point x="169" y="549" type="line"/>
      <point x="169" y="311" type="line"/>
      <point x="192" y="365"/>
      <point x="276" y="429"/>
      <point x="339" y="429" type="qcurve"/>
      <point x="402" y="429"/>
      <point x="477" y="359"/>
      <point x="479" y="304" type="qcurve"/>
      <point x="479" y="74" type="line"/>
      <point x="538" y="74" type="line"/>
      <point x="538" y="0" type="line"/>
      <point x="328" y="0" type="line"/>
      <point x="328" y="74" type="line"/>
      <point x="394" y="74" type="line"/>
      <point x="394" y="265" type="line"/>
      <point x="392" y="297"/>
      <point x="351" y="342"/>
      <point x="309" y="344" type="qcurve"/>
      <point x="279" y="344"/>
      <point x="229" y="323"/>
      <point x="192" y="287"/>
      <point x="172" y="237"/>
      <point x="172" y="207" type="qcurve"/>
      <point x="172" y="74" type="line"/>
      <point x="238" y="74" type="line"/>
      <point x="238" y="0" type="line"/>
      <point x="28" y="0" type="line"/>
      <point x="28" y="74" type="line"/>
      <point x="87" y="74" type="line"/>
      <point x="87" y="549" type="line"/>
      <point x="-3" y="549" type="line"/>
      <point x="-3" y="607" type="line"/>
      <point x="87" y="607" type="line"/>
      <point x="87" y="703" type="line"/>
      <point x="28" y="703" type="line"/>
    </contour>
  </outline>
</glyph>
<glyph name="Itilde" format="1">
  <advance width="369"/>
  <unicode hex="0128"/>
  <outline>
    <contour>
      <point x="319" y="725" type="line"/>
      <point x="319" y="630" type="line"/>
      <point x="239" y="630" type="line"/>
      <point x="239" y="95" type="line"/>
      <point x="319" y="95" type="line"/>
      <point x="319" y="0" type="line"/>
      <point x="50" y="0" type="line"/>
      <point x="50" y="95" type="line"/>
      <point x="130" y="95" type="line"/>
      <point x="130" y="630" type="line"/>
      <point x="50" y="630" type="line"/>
      <point x="50" y="725" type="line"/>
    </contour>
    <contour>
      <point x="172" y="806" type="qcurve"/>
      <point x="156" y="821"/>
      <point x="134" y="832"/>
      <point x="120" y="832" type="qcurve"/>
      <point x="106" y="832"/>
      <point x="70" y="814"/>
      <point x="67" y="786" type="qcurve"/>
      <point x="18" y="789" type="line"/>
      <point x="19" y="810"/>
      <point x="37" y="844"/>
      <point x="64" y="868"/>
      <point x="96" y="881"/>
      <point x="112" y="881" type="qcurve"/>
      <point x="136" y="881"/>
      <point x="174" y="863"/>
      <point x="190" y="847" type="qcurve"/>
      <point x="206" y="832"/>
      <point x="229" y="822"/>
      <point x="243" y="822" type="qcurve"/>
      <point x="250" y="822"/>
      <point x="267" y="826"/>
      <point x="282" y="836"/>
      <point x="294" y="854"/>
      <point x="296" y="868" type="qcurve"/>
      <point x="344" y="865" type="line"/>
      <point x="343" y="844"/>
      <point x="325" y="811"/>
      <point x="298" y="787"/>
      <point x="266" y="774"/>
      <point x="251" y="774" type="qcurve"/>
      <point x="228" y="774"/>
      <point x="189" y="791"/>
    </contour>
  </outline>
</glyph>
<glyph name="itilde" format="1">
  <advance width="274"/>
  <unicode hex="0129"/>
  <outline>
    <contour>
      <point x="183" y="418" type="line"/>
      <point x="183" y="74" type="line"/>
      <point x="249" y="74" type="line"/>
      <point x="249" y="0" type="line"/>
      <point x="39" y="0" type="line"/>
      <point x="39" y="74" type="line"/>
      <point x="98" y="74" type="line"/>
      <point x="98" y="344" type="line"/>
      <point x="39" y="344" type="line"/>
      <point x="39" y="418" type="line"/>
    </contour>
    <contour>
      <point x="129" y="506" type="qcurve"/>
      <point x="113" y="521"/>
      <point x="91" y="532"/>
      <point x="77" y="532" type="qcurve"/>
      <point x="63" y="532"/>
      <point x="27" y="514"/>
      <point x="24" y="486" type="qcurve"/>
      <point x="-25" y="489" type="line"/>
      <point x="-24" y="510"/>
      <point x="-6" y="544"/>
      <point x="21" y="568"/>
      <point x="53" y="581"/>
      <point x="69" y="581" type="qcurve"/>
      <point x="93" y="581"/>
      <point x="131" y="563"/>
      <point x="147" y="547" type="qcurve"/>
      <point x="163" y="532"/>
      <point x="186" y="522"/>
      <point x="200" y="522" type="qcurve"/>
      <point x="207" y="522"/>
      <point x="224" y="526"/>
      <point x="239" y="536"/>
      <point x="251" y="554"/>
      <point x="253" y="568" type="qcurve"/>
      <point x="301" y="565" type="line"/>
      <point x="300" y="544"/>
      <point x="282" y="511"/>
      <point x="255" y="487"/>
      <point x="223" y="474"/>
      <point x="208" y="474" type="qcurve"/>
      <point x="185" y="474"/>
      <point x="146" y="491"/>
    </contour>
  </outline>
</glyph>
<glyph name="imacron" format="1">
  <advance width="274"/>
  <unicode hex="012B"/>
  <outline>
    <contour>
      <point x="183" y="418" type="line"/>
      <point x="183" y="74" type="line"/>
      <point x="249" y="74" type="line"/>
      <point x="249" y="0" type="line"/>
      <point x="39" y="0" type="line"/>
      <point x="39" y="74" type="line"/>
      <point x="98" y="74" type="line"/>
      <point x="98" y="344" type="line"/>
      <point x="39" y="344" type="line"/>
      <point x="39" y="418" type="line"/>
    </contour>
    <contour>
      <point x="24" y="483" type="line"/>
      <point x="24" y="541" type="line"/>
      <point x="258" y="541" type="line"/>
      <point x="258" y="483" type="line"/>
    </contour>
  </outline>
</glyph>
<glyph name="Iogonek" format="1">
  <advance width="369"/>
  <unicode hex="012E"/>
  <outline>
    <contour>
      <point x="319" y="725" type="line"/>
      <point x="319" y="630" type="line"/>
      <point x="239" y="630" type="line"/>
      <point x="239" y="95" type="line"/>
      <point x="319" y="95" type="line"/>
      <point x="319" y="0" type="line"/>
      <point x="50" y="0" type="line"/>
      <point x="50" y="95" type="line"/>
      <point x="130" y="95" type="line"/>
      <point x="130" y="630" type="line"/>
      <point x="50" y="630" type="line"/>
      <point x="50" y="725" type="line"/>
    </contour>
    <contour>
      <point x="264" y="0" type="line"/>
      <point x="208" y="0" type="line"/>
      <point x="208" y="-7" type="line"/>
      <point x="208" y="-22"/>
      <point x="200" y="-39"/>
      <point x="187" y="-50"/>
      <point x="172" y="-57"/>
      <point x="166" y="-62" type="qcurve"/>
      <point x="145" y="-78"/>
      <point x="127" y="-119"/>
      <point x="127" y="-146" type="qcurve"/>
      <point x="127" y="-167"/>
      <point x="141" y="-206"/>
      <point x="168" y="-238"/>
      <point x="210" y="-257"/>
      <point x="237" y="-257" type="qcurve"/>
      <point x="272" y="-257"/>
      <point x="330" y="-218"/>
      <point x="344" y="-178" type="qcurve"/>
      <point x="332" y="-172"/>
      <point x="306" y="-159"/>
      <point x="294" y="-152" type="qcurve"/>
      <point x="289" y="-168"/>
      <point x="264" y="-189"/>
      <point x="244" y="-189" type="qcurve"/>
      <point x="220" y="-189"/>
      <point x="195" y="-157"/>
      <point x="195" y="-134" type="qcurve"/>
      <point x="195" y="-114"/>
      <point x="217" y="-91"/>
      <point x="242" y="-73"/>
      <point x="264" y="-53"/>
      <point x="264" y="-36" type="qcurve"/>
    </contour>
  </outline>
</glyph>
<glyph name="Idotaccent" format="1">
  <advance width="369"/>
  <unicode hex="0130"/>
  <outline>
    <contour>
      <point x="319" y="725" type="line"/>
      <point x="319" y="630" type="line"/>
      <point x="239" y="630" type="line"/>
      <point x="239" y="95" type="line"/>
      <point x="319" y="95" type="line"/>
      <point x="319" y="0" type="line"/>
      <point x="50" y="0" type="line"/>
      <point x="50" y="95" type="line"/>
      <point x="130" y="95" type="line"/>
      <point x="130" y="630" type="line"/>
      <point x="50" y="630" type="line"/>
      <point x="50" y="725" type="line"/>
    </contour>
    <contour>
      <point x="127" y="829" type="qcurve"/>
      <point x="127" y="853"/>
      <point x="162" y="885"/>
      <point x="182" y="885" type="qcurve"/>
      <point x="202" y="885"/>
      <point x="236" y="853"/>
      <point x="236" y="829" type="qcurve"/>
      <point x="236" y="805"/>
      <point x="202" y="774"/>
      <point x="182" y="774" type="qcurve"/>
      <point x="162" y="774"/>
      <point x="127" y="805"/>
    </contour>
  </outline>
</glyph>
<glyph name="dotlessi" format="1">
  <advance width="274"/>
  <unicode hex="0131"/>
  <outline>
    <contour>
      <point x="249" y="0" type="line"/>
      <point x="39" y="0" type="line"/>
      <point x="39" y="74" type="line"/>
      <point x="98" y="74" type="line"/>
      <point x="98" y="344" type="line"/>
      <point x="39" y="344" type="line"/>
      <point x="39" y="418" type="line"/>
      <point x="183" y="418" type="line"/>
      <point x="183" y="74" type="line"/>
      <point x="249" y="74" type="line"/>
    </contour>
  </outline>
</glyph>
<glyph name="Jcircumflex" format="1">
  <advance width="351"/>
  <unicode hex="0134"/>
  <outline>
    <contour>
      <point x="-11" y="-150" type="qcurve"/>
      <point x="-11" y="-47" type="line"/>
      <point x="59" y="-43"/>
      <point x="148" y="45"/>
      <point x="148" y="138" type="qcurve"/>
      <point x="148" y="630" type="line"/>
      <point x="40" y="630" type="line"/>
      <point x="40" y="725" type="line"/>
      <point x="258" y="725" type="line"/>
      <point x="258" y="135" type="line"/>
      <point x="258" y="68"/>
      <point x="218" y="-36"/>
      <point x="146" y="-109"/>
      <point x="47" y="-148"/>
    </contour>
    <contour>
      <point x="158" y="917" type="qcurve"/>
      <point x="184" y="887"/>
      <point x="207" y="860" type="qcurve"/>
      <point x="227" y="837"/>
      <point x="267" y="788"/>
      <point x="280" y="773" type="qcurve"/>
      <point x="216" y="773" type="line"/>
      <point x="158" y="826" type="line"/>
      <point x="101" y="773" type="line"/>
      <point x="36" y="773" type="line"/>
      <point x="47" y="787"/>
      <point x="89" y="837"/>
      <point x="109" y="860" type="qcurve"/>
      <point x="133" y="887"/>
    </contour>
  </outline>
</glyph>
<glyph name="jcircumflex" format="1">
  <advance width="240"/>
  <unicode hex="0135"/>
  <outline>
    <contour>
      <point x="82" y="-202" type="qcurve"/>
      <point x="66" y="-185"/>
      <point x="36" y="-155"/>
      <point x="22" y="-138" type="qcurve"/>
      <point x="51" y="-115"/>
      <point x="83" y="-46"/>
      <point x="83" y="2" type="qcurve"/>
      <point x="83" y="344" type="line"/>
      <point x="24" y="344" type="line"/>
      <point x="24" y="418" type="line"/>
      <point x="168" y="418" type="line"/>
      <point x="168" y="-1" type="line"/>
      <point x="168" y="-69"/>
      <point x="122" y="-169"/>
    </contour>
    <contour>
      <point x="108" y="668" type="qcurve"/>
      <point x="138" y="622"/>
      <point x="199" y="531"/>
      <point x="230" y="485" type="qcurve"/>
      <point x="166" y="485" type="line"/>
      <point x="162" y="491"/>
      <point x="146" y="512"/>
      <point x="128" y="535"/>
      <point x="112" y="557"/>
      <point x="108" y="563" type="qcurve"/>
      <point x="104" y="557"/>
      <point x="88" y="535"/>
      <point x="70" y="512"/>
      <point x="55" y="491"/>
      <point x="51" y="485" type="qcurve"/>
      <point x="-14" y="485" type="line"/>
      <point x="17" y="531"/>
      <point x="78" y="622"/>
    </contour>
  </outline>
</glyph>
<glyph name="uni0137" format="1">
  <advance width="501"/>
  <unicode hex="0137"/>
  <outline>
    <contour>
      <point x="172" y="132" type="line"/>
      <point x="172" y="74" type="line"/>
      <point x="238" y="74" type="line"/>
      <point x="238" y="0" type="line"/>
      <point x="28" y="0" type="line"/>
      <point x="28" y="74" type="line"/>
      <point x="87" y="74" type="line"/>
      <point x="87" y="703" type="line"/>
      <point x="28" y="703" type="line"/>
      <point x="28" y="777" type="line"/>
      <point x="172" y="777" type="line"/>
      <point x="172" y="232" type="line"/>
      <point x="319" y="369" type="line"/>
      <point x="274" y="369" type="line"/>
      <point x="274" y="422" type="line"/>
      <point x="468" y="422" type="line"/>
      <point x="468" y="369" type="line"/>
      <point x="424" y="369" type="line"/>
      <point x="417" y="363"/>
      <point x="387" y="335"/>
      <point x="350" y="299"/>
      <point x="308" y="259"/>
      <point x="290" y="241" type="qcurve"/>
      <point x="411" y="74" type="line"/>
      <point x="481" y="74" type="line"/>
      <point x="481" y="0" type="line"/>
      <point x="366" y="0" type="line"/>
      <point x="366" y="1" type="line"/>
      <point x="331" y="48"/>
      <point x="262" y="138"/>
      <point x="230" y="185" type="qcurve"/>
    </contour>
    <contour>
      <point x="334" y="-22" type="line"/>
      <point x="323" y="-48"/>
      <point x="307" y="-84"/>
      <point x="292" y="-116"/>
      <point x="277" y="-152"/>
      <point x="266" y="-178" type="qcurve"/>
      <point x="191" y="-178" type="line"/>
      <point x="201" y="-152"/>
      <point x="214" y="-116"/>
      <point x="226" y="-84"/>
      <point x="239" y="-48"/>
      <point x="249" y="-22" type="qcurve"/>
    </contour>
  </outline>
</glyph>
<glyph name="Lacute" format="1">
  <advance width="622"/>
  <unicode hex="0139"/>
  <outline>
    <contour>
      <point x="320" y="725" type="line"/>
      <point x="320" y="630" type="line"/>
      <point x="239" y="630" type="line"/>
      <point x="239" y="104" type="line"/>
      <point x="500" y="104" type="line"/>
      <point x="500" y="178" type="line"/>
      <point x="602" y="178" type="line"/>
      <point x="602" y="57" type="line"/>
      <point x="599" y="57" type="line"/>
      <point x="599" y="0" type="line"/>
      <point x="51" y="0" type="line"/>
      <point x="51" y="95" type="line"/>
      <point x="130" y="95" type="line"/>
      <point x="130" y="630" type="line"/>
      <point x="51" y="630" type="line"/>
      <point x="51" y="725" type="line"/>
    </contour>
    <contour>
      <point x="299" y="767" type="line"/>
      <point x="322" y="800"/>
      <point x="368" y="868"/>
      <point x="391" y="901" type="qcurve"/>
      <point x="483" y="901" type="line"/>
      <point x="364" y="767" type="line"/>
    </contour>
  </outline>
</glyph>
<glyph name="lacute" format="1">
  <advance width="264"/>
  <unicode hex="013A"/>
  <outline>
    <contour>
      <point x="239" y="0" type="line"/>
      <point x="29" y="0" type="line"/>
      <point x="29" y="74" type="line"/>
      <point x="88" y="74" type="line"/>
      <point x="88" y="703" type="line"/>
      <point x="29" y="703" type="line"/>
      <point x="29" y="777" type="line"/>
      <point x="173" y="777" type="line"/>
      <point x="173" y="74" type="line"/>
      <point x="239" y="74" type="line"/>
    </contour>
    <contour>
      <point x="72" y="794" type="line"/>
      <point x="95" y="827"/>
      <point x="141" y="895"/>
      <point x="164" y="928" type="qcurve"/>
      <point x="256" y="928" type="line"/>
      <point x="137" y="794" type="line"/>
    </contour>
  </outline>
</glyph>
<glyph name="uni013B" format="1">
  <advance width="622"/>
  <unicode hex="013B"/>
  <outline>
    <contour>
      <point x="320" y="725" type="line"/>
      <point x="320" y="630" type="line"/>
      <point x="239" y="630" type="line"/>
      <point x="239" y="104" type="line"/>
      <point x="500" y="104" type="line"/>
      <point x="500" y="178" type="line"/>
      <point x="602" y="178" type="line"/>
      <point x="602" y="57" type="line"/>
      <point x="599" y="57" type="line"/>
      <point x="599" y="0" type="line"/>
      <point x="51" y="0" type="line"/>
      <point x="51" y="95" type="line"/>
      <point x="130" y="95" type="line"/>
      <point x="130" y="630" type="line"/>
      <point x="51" y="630" type="line"/>
      <point x="51" y="725" type="line"/>
    </contour>
    <contour>
      <point x="380" y="-22" type="line"/>
      <point x="369" y="-48"/>
      <point x="353" y="-84"/>
      <point x="338" y="-116"/>
      <point x="323" y="-152"/>
      <point x="312" y="-178" type="qcurve"/>
      <point x="237" y="-178" type="line"/>
      <point x="247" y="-152"/>
      <point x="260" y="-116"/>
      <point x="272" y="-84"/>
      <point x="285" y="-48"/>
      <point x="295" y="-22" type="qcurve"/>
    </contour>
  </outline>
</glyph>
<glyph name="Lcaron" format="1">
  <advance width="623"/>
  <unicode hex="013D"/>
  <outline>
    <contour>
      <point x="320" y="725" type="line"/>
      <point x="320" y="630" type="line"/>
      <point x="239" y="630" type="line"/>
      <point x="239" y="104" type="line"/>
      <point x="500" y="104" type="line"/>
      <point x="500" y="178" type="line"/>
      <point x="602" y="178" type="line"/>
      <point x="602" y="57" type="line"/>
      <point x="599" y="57" type="line"/>
      <point x="599" y="0" type="line"/>
      <point x="51" y="0" type="line"/>
      <point x="51" y="95" type="line"/>
      <point x="130" y="95" type="line"/>
      <point x="130" y="630" type="line"/>
      <point x="51" y="630" type="line"/>
      <point x="51" y="725" type="line"/>
    </contour>
    <contour>
      <point x="412" y="573" type="qcurve"/>
      <point x="367" y="598" type="line"/>
      <point x="389" y="618"/>
      <point x="408" y="679"/>
      <point x="401" y="714" type="qcurve"/>
      <point x="457" y="721" type="line"/>
      <point x="465" y="679"/>
      <point x="441" y="602"/>
    </contour>
  </outline>
</glyph>
<glyph name="lcaron" format="1">
  <advance width="265"/>
  <unicode hex="013E"/>
  <outline>
    <contour>
      <point x="239" y="0" type="line"/>
      <point x="29" y="0" type="line"/>
      <point x="29" y="74" type="line"/>
      <point x="88" y="74" type="line"/>
      <point x="88" y="703" type="line"/>
      <point x="29" y="703" type="line"/>
      <point x="29" y="777" type="line"/>
      <point x="173" y="777" type="line"/>
      <point x="173" y="74" type="line"/>
      <point x="239" y="74" type="line"/>
    </contour>
    <contour>
      <point x="263" y="573" type="qcurve"/>
      <point x="218" y="598" type="line"/>
      <point x="240" y="618"/>
      <point x="259" y="679"/>
      <point x="252" y="714" type="qcurve"/>
      <point x="308" y="721" type="line"/>
      <point x="316" y="679"/>
      <point x="292" y="602"/>
    </contour>
  </outline>
</glyph>
<glyph name="lslash" format="1">
  <advance width="268"/>
  <unicode hex="0142"/>
  <outline>
    <contour>
      <point x="241" y="0" type="line"/>
      <point x="31" y="0" type="line"/>
      <point x="31" y="74" type="line"/>
      <point x="90" y="74" type="line"/>
      <point x="90" y="266" type="line"/>
      <point x="30" y="248" type="line"/>
      <point x="30" y="337" type="line"/>
      <point x="90" y="355" type="line"/>
      <point x="90" y="703" type="line"/>
      <point x="31" y="703" type="line"/>
      <point x="31" y="777" type="line"/>
      <point x="175" y="777" type="line"/>
      <point x="175" y="382" type="line"/>
      <point x="232" y="400" type="line"/>
      <point x="232" y="311" type="line"/>
      <point x="175" y="293" type="line"/>
      <point x="175" y="74" type="line"/>
      <point x="241" y="74" type="line"/>
    </contour>
  </outline>
</glyph>
<glyph name="Ncaron" format="1">
  <advance width="882"/>
  <unicode hex="0147"/>
  <outline>
    <contour>
      <point x="320" y="95" type="line"/>
      <point x="320" y="0" type="line"/>
      <point x="50" y="0" type="line"/>
      <point x="50" y="95" type="line"/>
      <point x="130" y="95" type="line"/>
      <point x="130" y="630" type="line"/>
      <point x="47" y="630" type="line"/>
      <point x="47" y="725" type="line"/>
      <point x="164" y="725" type="line"/>
      <point x="178" y="707"/>
      <point x="253" y="632"/>
      <point x="350" y="538"/>
      <point x="457" y="435"/>
      <point x="554" y="341"/>
      <point x="626" y="267"/>
      <point x="640" y="250" type="qcurve"/>
      <point x="659" y="222" type="line"/>
      <point x="656" y="256" type="line"/>
      <point x="656" y="630" type="line"/>
      <point x="575" y="630" type="line"/>
      <point x="575" y="725" type="line"/>
      <point x="843" y="725" type="line"/>
      <point x="843" y="630" type="line"/>
      <point x="765" y="630" type="line"/>
      <point x="765" y="-33" type="line"/>
      <point x="751" y="-15"/>
      <point x="671" y="65"/>
      <point x="567" y="169"/>
      <point x="450" y="283"/>
      <point x="346" y="386"/>
      <point x="268" y="467"/>
      <point x="255" y="484" type="qcurve"/>
      <point x="236" y="510" type="line"/>
      <point x="239" y="478" type="line"/>
      <point x="239" y="95" type="line"/>
    </contour>
    <contour>
      <point x="416" y="743" type="qcurve"/>
      <point x="391" y="773"/>
      <point x="367" y="800" type="qcurve"/>
      <point x="347" y="823"/>
      <point x="305" y="872"/>
      <point x="294" y="887" type="qcurve"/>
      <point x="359" y="887" type="line"/>
      <point x="416" y="834" type="line"/>
      <point x="474" y="887" type="line"/>
      <point x="538" y="887" type="line"/>
      <point x="525" y="871"/>
      <point x="485" y="823"/>
      <point x="465" y="800" type="qcurve"/>
      <point x="442" y="773"/>
    </contour>
  </outline>
</glyph>
<glyph name="Omacron" format="1">
  <advance width="821"/>
  <unicode hex="014C"/>
  <outline>
    <contour>
      <point x="40" y="362" type="qcurve"/>
      <point x="40" y="437"/>
      <point x="98" y="572"/>
      <point x="199" y="674"/>
      <point x="333" y="733"/>
      <point x="410" y="733" type="qcurve"/>
      <point x="486" y="733"/>
      <point x="621" y="674"/>
      <point x="722" y="572"/>
      <point x="781" y="437"/>
      <point x="781" y="362" type="qcurve"/>
      <point x="781" y="285"/>
      <point x="722" y="151"/>
      <point x="621" y="50"/>
      <point x="486" y="-8"/>
      <point x="410" y="-8" type="qcurve"/>
      <point x="333" y="-8"/>
      <point x="199" y="50"/>
      <point x="98" y="151"/>
      <point x="40" y="285"/>
    </contour>
    <contour>
      <point x="149" y="361" type="qcurve"/>
      <point x="149" y="306"/>
      <point x="190" y="209"/>
      <point x="262" y="137"/>
      <point x="358" y="95"/>
      <point x="412" y="95" type="qcurve"/>
      <point x="466" y="95"/>
      <point x="561" y="137"/>
      <point x="632" y="209"/>
      <point x="673" y="306"/>
      <point x="673" y="362" type="qcurve"/>
      <point x="673" y="417"/>
      <point x="632" y="514"/>
      <point x="560" y="586"/>
      <point x="465" y="628"/>
      <point x="411" y="628" type="qcurve"/>
      <point x="357" y="628"/>
      <point x="261" y="586"/>
      <point x="190" y="514"/>
      <point x="149" y="416"/>
    </contour>
    <contour>
      <point x="296" y="785" type="line"/>
      <point x="296" y="843" type="line"/>
      <point x="530" y="843" type="line"/>
      <point x="530" y="785" type="line"/>
    </contour>
  </outline>
</glyph>
<glyph name="Scircumflex" format="1">
  <advance width="577"/>
  <unicode hex="015C"/>
  <outline>
    <contour>
      <point x="48" y="60" type="line"/>
      <point x="48" y="192" type="line"/>
      <point x="150" y="192" type="line"/>
      <point x="150" y="124" type="line"/>
      <point x="207" y="98"/>
      <point x="259" y="98" type="qcurve"/>
      <point x="280" y="98"/>
      <point x="338" y="108"/>
      <point x="389" y="134"/>
      <point x="425" y="175"/>
      <point x="425" y="207" type="qcurve"/>
      <point x="425" y="245"/>
      <point x="371" y="294"/>
      <point x="291" y="330"/>
      <point x="197" y="363"/>
      <point x="117" y="409"/>
      <point x="63" y="477"/>
      <point x="63" y="530" type="qcurve"/>
      <point x="63" y="567"/>
      <point x="93" y="639"/>
      <point x="153" y="695"/>
      <point x="242" y="729"/>
      <point x="301" y="729" type="qcurve"/>
      <point x="337" y="729"/>
      <point x="406" y="717"/>
      <point x="462" y="702"/>
      <point x="501" y="688"/>
      <point x="507" y="685" type="qcurve"/>
      <point x="507" y="546" type="line"/>
      <point x="405" y="546" type="line"/>
      <point x="405" y="616" type="line"/>
      <point x="380" y="622"/>
      <point x="332" y="629"/>
      <point x="309" y="629" type="qcurve"/>
      <point x="246" y="629"/>
      <point x="171" y="577"/>
      <point x="171" y="537" type="qcurve"/>
      <point x="171" y="511"/>
      <point x="202" y="476"/>
      <point x="253" y="449"/>
      <point x="318" y="426"/>
      <point x="386" y="400"/>
      <point x="451" y="366"/>
      <point x="502" y="317"/>
      <point x="533" y="248"/>
      <point x="533" y="201" type="qcurve"/>
      <point x="533" y="154"/>
      <point x="500" y="78"/>
      <point x="434" y="22"/>
      <point x="333" y="-8"/>
      <point x="265" y="-8" type="qcurve"/>
      <point x="221" y="-8"/>
      <point x="154" y="5"/>
      <point x="103" y="24"/>
      <point x="64" y="48"/>
      <point x="49" y="60" type="qcurve"/>
    </contour>
    <contour>
      <point x="311" y="917" type="qcurve"/>
      <point x="337" y="887"/>
      <point x="360" y="860" type="qcurve"/>
      <point x="380" y="837"/>
      <point x="420" y="788"/>
      <point x="433" y="773" type="qcurve"/>
      <point x="369" y="773" type="line"/>
      <point x="311" y="826" type="line"/>
      <point x="254" y="773" type="line"/>
      <point x="189" y="773" type="line"/>
      <point x="200" y="787"/>
      <point x="242" y="837"/>
      <point x="262" y="860" type="qcurve"/>
      <point x="286" y="887"/>
    </contour>
  </outline>
</glyph>
<glyph name="Scedilla" format="1">
  <advance width="577"/>
  <unicode hex="015E"/>
  <outline>
    <contour>
      <point x="48" y="60" type="line"/>
      <point x="48" y="192" type="line"/>
      <point x="150" y="192" type="line"/>
      <point x="150" y="124" type="line"/>
      <point x="207" y="98"/>
      <point x="259" y="98" type="qcurve"/>
      <point x="280" y="98"/>
      <point x="338" y="108"/>
      <point x="389" y="134"/>
      <point x="425" y="175"/>
      <point x="425" y="207" type="qcurve"/>
      <point x="425" y="245"/>
      <point x="371" y="294"/>
      <point x="291" y="330"/>
      <point x="197" y="363"/>
      <point x="117" y="409"/>
      <point x="63" y="477"/>
      <point x="63" y="530" type="qcurve"/>
      <point x="63" y="567"/>
      <point x="93" y="639"/>
      <point x="153" y="695"/>
      <point x="242" y="729"/>
      <point x="301" y="729" type="qcurve"/>
      <point x="337" y="729"/>
      <point x="406" y="717"/>
      <point x="462" y="702"/>
      <point x="501" y="688"/>
      <point x="507" y="685" type="qcurve"/>
      <point x="507" y="546" type="line"/>
      <point x="405" y="546" type="line"/>
      <point x="405" y="616" type="line"/>
      <point x="380" y="622"/>
      <point x="332" y="629"/>
      <point x="309" y="629" type="qcurve"/>
      <point x="246" y="629"/>
      <point x="171" y="577"/>
      <point x="171" y="537" type="qcurve"/>
      <point x="171" y="511"/>
      <point x="202" y="476"/>
      <point x="253" y="449"/>
      <point x="318" y="426"/>
      <point x="386" y="400"/>
      <point x="451" y="366"/>
      <point x="502" y="317"/>
      <point x="533" y="248"/>
      <point x="533" y="201" type="qcurve"/>
      <point x="533" y="113"/>
      <point x="416" y="0"/>
      <point x="296" y="-7" type="qcurve"/>
      <point x="296" y="-22"/>
      <point x="305" y="-39"/>
      <point x="318" y="-50"/>
      <point x="333" y="-57"/>
      <point x="339" y="-62" type="qcurve"/>
      <point x="360" y="-78"/>
      <point x="377" y="-119"/>
      <point x="377" y="-146" type="qcurve"/>
      <point x="377" y="-167"/>
      <point x="363" y="-206"/>
      <point x="336" y="-238"/>
      <point x="295" y="-257"/>
      <point x="268" y="-257" type="qcurve"/>
      <point x="233" y="-257"/>
      <point x="174" y="-218"/>
      <point x="160" y="-178" type="qcurve"/>
      <point x="173" y="-172"/>
      <point x="198" y="-159"/>
      <point x="210" y="-152" type="qcurve"/>
      <point x="215" y="-168"/>
      <point x="241" y="-189"/>
      <point x="260" y="-189" type="qcurve"/>
      <point x="284" y="-189"/>
      <point x="309" y="-157"/>
      <point x="309" y="-134" type="qcurve"/>
      <point x="309" y="-114"/>
      <point x="287" y="-91"/>
      <point x="262" y="-73"/>
      <point x="240" y="-53"/>
      <point x="240" y="-36" type="qcurve"/>
      <point x="240" y="-7" type="line"/>
      <point x="165" y="-3"/>
      <point x="77" y="38"/>
      <point x="49" y="60" type="qcurve"/>
    </contour>
  </outline>
</glyph>
<glyph name="scedilla" format="1">
  <advance width="369"/>
  <unicode hex="015F"/>
  <outline>
    <contour>
      <point x="115" y="130" type="line"/>
      <point x="115" y="87" type="line"/>
      <point x="126" y="82"/>
      <point x="157" y="75"/>
      <point x="175" y="75" type="qcurve"/>
      <point x="204" y="75"/>
      <point x="243" y="99"/>
      <point x="243" y="121" type="qcurve"/>
      <point x="243" y="138"/>
      <point x="215" y="158"/>
      <point x="173" y="176"/>
      <point x="124" y="195"/>
      <point x="82" y="225"/>
      <point x="54" y="270"/>
      <point x="54" y="306" type="qcurve"/>
      <point x="54" y="339"/>
      <point x="79" y="386"/>
      <point x="118" y="415"/>
      <point x="167" y="428"/>
      <point x="192" y="428" type="qcurve"/>
      <point x="205" y="428"/>
      <point x="238" y="424"/>
      <point x="271" y="415"/>
      <point x="302" y="399"/>
      <point x="313" y="388" type="qcurve"/>
      <point x="313" y="295" type="line"/>
      <point x="240" y="295" type="line"/>
      <point x="240" y="339" type="line"/>
      <point x="231" y="341"/>
      <point x="208" y="345"/>
      <point x="195" y="345" type="qcurve"/>
      <point x="175" y="345"/>
      <point x="141" y="329"/>
      <point x="141" y="307" type="qcurve"/>
      <point x="141" y="288"/>
      <point x="169" y="264"/>
      <point x="211" y="244"/>
      <point x="259" y="225"/>
      <point x="301" y="196"/>
      <point x="329" y="153"/>
      <point x="329" y="120" type="qcurve"/>
      <point x="329" y="71"/>
      <point x="267" y="3"/>
      <point x="212" y="-6" type="qcurve"/>
      <point x="212" y="-7" type="line"/>
      <point x="212" y="-22"/>
      <point x="221" y="-39"/>
      <point x="234" y="-50"/>
      <point x="249" y="-57"/>
      <point x="255" y="-62" type="qcurve"/>
      <point x="276" y="-78"/>
      <point x="293" y="-119"/>
      <point x="293" y="-146" type="qcurve"/>
      <point x="293" y="-167"/>
      <point x="279" y="-206"/>
      <point x="252" y="-238"/>
      <point x="211" y="-257"/>
      <point x="184" y="-257" type="qcurve"/>
      <point x="149" y="-257"/>
      <point x="90" y="-218"/>
      <point x="76" y="-178" type="qcurve"/>
      <point x="89" y="-172"/>
      <point x="114" y="-159"/>
      <point x="126" y="-152" type="qcurve"/>
      <point x="131" y="-168"/>
      <point x="157" y="-189"/>
      <point x="176" y="-189" type="qcurve"/>
      <point x="200" y="-189"/>
      <point x="225" y="-157"/>
      <point x="225" y="-134" type="qcurve"/>
      <point x="225" y="-114"/>
      <point x="203" y="-91"/>
      <point x="178" y="-73"/>
      <point x="156" y="-53"/>
      <point x="156" y="-36" type="qcurve"/>
      <point x="156" y="-8" type="line"/>
      <point x="125" y="-6"/>
      <point x="61" y="14"/>
      <point x="41" y="37" type="qcurve"/>
      <point x="41" y="130" type="line"/>
    </contour>
  </outline>
</glyph>
<glyph name="uni0162" format="1">
  <advance width="611"/>
  <unicode hex="0162"/>
  <outline>
    <contour>
      <point x="472" y="546" type="line"/>
      <point x="472" y="621" type="line"/>
      <point x="360" y="621" type="line"/>
      <point x="360" y="0" type="line"/>
      <point x="251" y="0" type="line"/>
      <point x="251" y="621" type="line"/>
      <point x="139" y="621" type="line"/>
      <point x="139" y="546" type="line"/>
      <point x="37" y="546" type="line"/>
      <point x="37" y="725" type="line"/>
      <point x="574" y="725" type="line"/>
      <point x="574" y="546" type="line"/>
    </contour>
    <contour>
      <point x="327" y="-22" type="line"/>
      <point x="316" y="-48"/>
      <point x="300" y="-84"/>
      <point x="285" y="-116"/>
      <point x="270" y="-152"/>
      <point x="259" y="-178" type="qcurve"/>
      <point x="184" y="-178" type="line"/>
      <point x="194" y="-152"/>
      <point x="207" y="-116"/>
      <point x="219" y="-84"/>
      <point x="232" y="-48"/>
      <point x="242" y="-22" type="qcurve"/>
    </contour>
  </outline>
</glyph>
<glyph name="Tbar" format="1">
  <advance width="612"/>
  <unicode hex="0166"/>
  <outline>
    <contour>
      <point x="472" y="546" type="line"/>
      <point x="472" y="621" type="line"/>
      <point x="360" y="621" type="line"/>
      <point x="360" y="487" type="line"/>
      <point x="415" y="487" type="line"/>
      <point x="415" y="429" type="line"/>
      <point x="360" y="429" type="line"/>
      <point x="360" y="0" type="line"/>
      <point x="251" y="0" type="line"/>
      <point x="251" y="429" type="line"/>
      <point x="181" y="429" type="line"/>
      <point x="181" y="487" type="line"/>
      <point x="251" y="487" type="line"/>
      <point x="251" y="621" type="line"/>
      <point x="139" y="621" type="line"/>
      <point x="139" y="546" type="line"/>
      <point x="37" y="546" type="line"/>
      <point x="37" y="725" type="line"/>
      <point x="574" y="725" type="line"/>
      <point x="574" y="546" type="line"/>
    </contour>
  </outline>
</glyph>
<glyph name="Ubreve" format="1">
  <advance width="774"/>
  <unicode hex="016C"/>
  <outline>
    <contour>
      <point x="298" y="725" type="line"/>
      <point x="298" y="630" type="line"/>
      <point x="221" y="630" type="line"/>
      <point x="221" y="259" type="line"/>
      <point x="221" y="224"/>
      <point x="246" y="165"/>
      <point x="291" y="120"/>
      <point x="352" y="95"/>
      <point x="387" y="95" type="qcurve"/>
      <point x="422" y="95"/>
      <point x="484" y="120"/>
      <point x="529" y="165"/>
      <point x="555" y="224"/>
      <point x="555" y="259" type="qcurve"/>
      <point x="555" y="725" type="line"/>
      <point x="742" y="725" type="line"/>
      <point x="742" y="630" type="line"/>
      <point x="664" y="630" type="line"/>
      <point x="664" y="256" type="line"/>
      <point x="664" y="196"/>
      <point x="621" y="99"/>
      <point x="546" y="30"/>
      <point x="445" y="-8"/>
      <point x="387" y="-8" type="qcurve"/>
      <point x="329" y="-8"/>
      <point x="229" y="30"/>
      <point x="155" y="99"/>
      <point x="112" y="196"/>
      <point x="112" y="256" type="qcurve"/>
      <point x="112" y="630" type="line"/>
      <point x="29" y="630" type="line"/>
      <point x="29" y="725" type="line"/>
    </contour>
    <contour>
      <point x="393" y="766" type="qcurve"/>
      <point x="360" y="766"/>
      <point x="301" y="790"/>
      <point x="257" y="832"/>
      <point x="231" y="890"/>
      <point x="230" y="923" type="qcurve"/>
      <point x="279" y="923" type="line"/>
      <point x="281" y="875"/>
      <point x="344" y="814"/>
      <point x="393" y="814" type="qcurve"/>
      <point x="442" y="814"/>
      <point x="503" y="875"/>
      <point x="505" y="923" type="qcurve"/>
      <point x="554" y="923" type="line"/>
      <point x="554" y="890"/>
      <point x="528" y="832"/>
      <point x="484" y="790"/>
      <point x="426" y="766"/>
    </contour>
  </outline>
</glyph>
<glyph name="Uring" format="1">
  <advance width="774"/>
  <unicode hex="016E"/>
  <outline>
    <contour>
      <point x="298" y="725" type="line"/>
      <point x="298" y="630" type="line"/>
      <point x="221" y="630" type="line"/>
      <point x="221" y="259" type="line"/>
      <point x="221" y="224"/>
      <point x="246" y="165"/>
      <point x="291" y="120"/>
      <point x="352" y="95"/>
      <point x="387" y="95" type="qcurve"/>
      <point x="422" y="95"/>
      <point x="484" y="120"/>
      <point x="529" y="165"/>
      <point x="555" y="224"/>
      <point x="555" y="259" type="qcurve"/>
      <point x="555" y="725" type="line"/>
      <point x="742" y="725" type="line"/>
      <point x="742" y="630" type="line"/>
      <point x="664" y="630" type="line"/>
      <point x="664" y="256" type="line"/>
      <point x="664" y="196"/>
      <point x="621" y="99"/>
      <point x="546" y="30"/>
      <point x="445" y="-8"/>
      <point x="387" y="-8" type="qcurve"/>
      <point x="329" y="-8"/>
      <point x="229" y="30"/>
      <point x="155" y="99"/>
      <point x="112" y="196"/>
      <point x="112" y="256" type="qcurve"/>
      <point x="112" y="630" type="line"/>
      <point x="29" y="630" type="line"/>
      <point x="29" y="725" type="line"/>
    </contour>
    <contour>
      <point x="303" y="844" type="qcurve"/>
      <point x="303" y="861"/>
      <point x="317" y="892"/>
      <point x="340" y="915"/>
      <point x="371" y="929"/>
      <point x="389" y="929" type="qcurve"/>
      <point x="423" y="929"/>
      <point x="473" y="879"/>
      <point x="473" y="844" type="qcurve"/>
      <point x="473" y="809"/>
      <point x="423" y="759"/>
      <point x="389" y="759" type="qcurve"/>
      <point x="371" y="759"/>
      <point x="340" y="773"/>
      <point x="317" y="796"/>
      <point x="303" y="827"/>
    </contour>
    <contour>
      <point x="354" y="843" type="qcurve"/>
      <point x="354" y="829"/>
      <point x="374" y="808"/>
      <point x="389" y="808" type="qcurve"/>
      <point x="403" y="808"/>
      <point x="424" y="829"/>
      <point x="424" y="843" type="qcurve"/>
      <point x="424" y="858"/>
      <point x="403" y="878"/>
      <point x="389" y="878" type="qcurve"/>
      <point x="374" y="878"/>
      <point x="354" y="858"/>
    </contour>
  </outline>
</glyph>
<glyph name="uring" format="1">
  <advance width="563"/>
  <unicode hex="016F"/>
  <outline>
    <contour>
      <point x="535" y="0" type="line"/>
      <point x="405" y="0" type="line"/>
      <point x="395" y="107" type="line"/>
      <point x="372" y="56"/>
      <point x="289" y="-10"/>
      <point x="225" y="-10" type="qcurve"/>
      <point x="161" y="-10"/>
      <point x="86" y="59"/>
      <point x="84" y="115" type="qcurve"/>
      <point x="84" y="344" type="line"/>
      <point x="25" y="344" type="line"/>
      <point x="25" y="418" type="line"/>
      <point x="169" y="418" type="line"/>
      <point x="169" y="153" type="line"/>
      <point x="171" y="122"/>
      <point x="212" y="78"/>
      <point x="255" y="75" type="qcurve"/>
      <point x="285" y="75"/>
      <point x="335" y="96"/>
      <point x="371" y="132"/>
      <point x="391" y="182"/>
      <point x="391" y="212" type="qcurve"/>
      <point x="391" y="344" type="line"/>
      <point x="325" y="344" type="line"/>
      <point x="325" y="418" type="line"/>
      <point x="476" y="418" type="line"/>
      <point x="476" y="74" type="line"/>
      <point x="535" y="74" type="line"/>
    </contour>
    <contour>
      <point x="189" y="540" type="qcurve"/>
      <point x="189" y="557"/>
      <point x="203" y="588"/>
      <point x="226" y="611"/>
      <point x="257" y="624"/>
      <point x="275" y="624" type="qcurve"/>
      <point x="309" y="624"/>
      <point x="359" y="575"/>
      <point x="359" y="540" type="qcurve"/>
      <point x="359" y="522"/>
      <point x="345" y="491"/>
      <point x="322" y="468"/>
      <point x="292" y="454"/>
      <point x="275" y="454" type="qcurve"/>
      <point x="257" y="454"/>
      <point x="226" y="468"/>
      <point x="203" y="491"/>
      <point x="189" y="522"/>
    </contour>
    <contour>
      <point x="240" y="538" type="qcurve"/>
      <point x="240" y="524"/>
      <point x="260" y="504"/>
      <point x="275" y="504" type="qcurve"/>
      <point x="289" y="504"/>
      <point x="310" y="524"/>
      <point x="310" y="538" type="qcurve"/>
      <point x="310" y="554"/>
      <point x="289" y="574"/>
      <point x="275" y="574" type="qcurve"/>
      <point x="260" y="574"/>
      <point x="240" y="554"/>
    </contour>
  </outline>
</glyph>
<glyph name="Uhungarumlaut" format="1">
  <advance width="774"/>
  <unicode hex="0170"/>
  <outline>
    <contour>
      <point x="298" y="725" type="line"/>
      <point x="298" y="630" type="line"/>
      <point x="221" y="630" type="line"/>
      <point x="221" y="259" type="line"/>
      <point x="221" y="224"/>
      <point x="246" y="165"/>
      <point x="291" y="120"/>
      <point x="352" y="95"/>
      <point x="387" y="95" type="qcurve"/>
      <point x="422" y="95"/>
      <point x="484" y="120"/>
      <point x="529" y="165"/>
      <point x="555" y="224"/>
      <point x="555" y="259" type="qcurve"/>
      <point x="555" y="725" type="line"/>
      <point x="742" y="725" type="line"/>
      <point x="742" y="630" type="line"/>
      <point x="664" y="630" type="line"/>
      <point x="664" y="256" type="line"/>
      <point x="664" y="196"/>
      <point x="621" y="99"/>
      <point x="546" y="30"/>
      <point x="445" y="-8"/>
      <point x="387" y="-8" type="qcurve"/>
      <point x="329" y="-8"/>
      <point x="229" y="30"/>
      <point x="155" y="99"/>
      <point x="112" y="196"/>
      <point x="112" y="256" type="qcurve"/>
      <point x="112" y="630" type="line"/>
      <point x="29" y="630" type="line"/>
      <point x="29" y="725" type="line"/>
    </contour>
    <contour>
      <point x="249" y="763" type="line"/>
      <point x="272" y="796"/>
      <point x="318" y="864"/>
      <point x="341" y="897" type="qcurve"/>
      <point x="433" y="897" type="line"/>
      <point x="314" y="763" type="line"/>
    </contour>
    <contour>
      <point x="470" y="763" type="line"/>
      <point x="493" y="796"/>
      <point x="539" y="864"/>
      <point x="562" y="897" type="qcurve"/>
      <point x="654" y="897" type="line"/>
      <point x="534" y="763" type="line"/>
    </contour>
  </outline>
</glyph>
<glyph name="uhungarumlaut" format="1">
  <advance width="563"/>
  <unicode hex="0171"/>
  <outline>
    <contour>
      <point x="391" y="212" type="qcurve"/>
      <point x="391" y="344" type="line"/>
      <point x="325" y="344" type="line"/>
      <point x="325" y="418" type="line"/>
      <point x="476" y="418" type="line"/>
      <point x="476" y="74" type="line"/>
      <point x="535" y="74" type="line"/>
      <point x="535" y="0" type="line"/>
      <point x="405" y="0" type="line"/>
      <point x="395" y="107" type="line"/>
      <point x="372" y="56"/>
      <point x="289" y="-10"/>
      <point x="225" y="-10" type="qcurve"/>
      <point x="161" y="-10"/>
      <point x="86" y="59"/>
      <point x="84" y="115" type="qcurve"/>
      <point x="84" y="344" type="line"/>
      <point x="25" y="344" type="line"/>
      <point x="25" y="418" type="line"/>
      <point x="169" y="418" type="line"/>
      <point x="169" y="153" type="line"/>
      <point x="171" y="122"/>
      <point x="212" y="78"/>
      <point x="255" y="75" type="qcurve"/>
      <point x="285" y="75"/>
      <point x="335" y="96"/>
      <point x="371" y="132"/>
      <point x="391" y="182"/>
    </contour>
    <contour>
      <point x="107" y="486" type="line"/>
      <point x="130" y="519"/>
      <point x="176" y="587"/>
      <point x="199" y="620" type="qcurve"/>
      <point x="291" y="620" type="line"/>
      <point x="172" y="486" type="line"/>
    </contour>
    <contour>
      <point x="328" y="486" type="line"/>
      <point x="351" y="519"/>
      <point x="397" y="587"/>
      <point x="420" y="620" type="qcurve"/>
      <point x="512" y="620" type="line"/>
      <point x="392" y="486" type="line"/>
    </contour>
  </outline>
</glyph>
<glyph name="uogonek" format="1">
  <advance width="565"/>
  <unicode hex="0173"/>
  <outline>
    <contour>
      <point x="537" y="0" type="line"/>
      <point x="407" y="0" type="line"/>
      <point x="397" y="107" type="line"/>
      <point x="374" y="56"/>
      <point x="291" y="-10"/>
      <point x="227" y="-10" type="qcurve"/>
      <point x="163" y="-10"/>
      <point x="88" y="59"/>
      <point x="86" y="115" type="qcurve"/>
      <point x="86" y="344" type="line"/>
      <point x="27" y="344" type="line"/>
      <point x="27" y="418" type="line"/>
      <point x="171" y="418" type="line"/>
      <point x="171" y="153" type="line"/>
      <point x="173" y="122"/>
      <point x="214" y="78"/>
      <point x="257" y="75" type="qcurve"/>
      <point x="287" y="75"/>
      <point x="337" y="96"/>
      <point x="373" y="132"/>
      <point x="393" y="182"/>
      <point x="393" y="212" type="qcurve"/>
      <point x="393" y="344" type="line"/>
      <point x="327" y="344" type="line"/>
      <point x="327" y="418" type="line"/>
      <point x="478" y="418" type="line"/>
      <point x="478" y="74" type="line"/>
      <point x="537" y="74" type="line"/>
    </contour>
    <contour>
      <point x="463" y="0" type="line"/>
      <point x="407" y="0" type="line"/>
      <point x="407" y="-7" type="line"/>
      <point x="407" y="-22"/>
      <point x="399" y="-39"/>
      <point x="386" y="-50"/>
      <point x="371" y="-57"/>
      <point x="365" y="-62" type="qcurve"/>
      <point x="344" y="-78"/>
      <point x="326" y="-119"/>
      <point x="326" y="-146" type="qcurve"/>
      <point x="326" y="-167"/>
      <point x="340" y="-206"/>
      <point x="367" y="-238"/>
      <point x="409" y="-257"/>
      <point x="436" y="-257" type="qcurve"/>
      <point x="471" y="-257"/>
      <point x="529" y="-218"/>
      <point x="543" y="-178" type="qcurve"/>
      <point x="531" y="-172"/>
      <point x="505" y="-159"/>
      <point x="493" y="-152" type="qcurve"/>
      <point x="488" y="-168"/>
      <point x="463" y="-189"/>
      <point x="443" y="-189" type="qcurve"/>
      <point x="419" y="-189"/>
      <point x="394" y="-157"/>
      <point x="394" y="-134" type="qcurve"/>
      <point x="394" y="-114"/>
      <point x="416" y="-91"/>
      <point x="441" y="-73"/>
      <point x="463" y="-53"/>
      <point x="463" y="-36" type="qcurve"/>
    </contour>
  </outline>
</glyph>
<glyph name="Ydieresis" format="1">
  <advance width="751"/>
  <unicode hex="0178"/>
  <outline>
    <contour>
      <point x="511" y="95" type="line"/>
      <point x="511" y="0" type="line"/>
      <point x="241" y="0" type="line"/>
      <point x="241" y="95" type="line"/>
      <point x="321" y="95" type="line"/>
      <point x="321" y="239" type="line"/>
      <point x="316" y="247"/>
      <point x="291" y="293"/>
      <point x="255" y="357"/>
      <point x="212" y="435"/>
      <point x="168" y="517"/>
      <point x="124" y="597"/>
      <point x="106" y="630" type="qcurve"/>
      <point x="7" y="630" type="line"/>
      <point x="7" y="725" type="line"/>
      <point x="276" y="725" type="line"/>
      <point x="276" y="630" type="line"/>
      <point x="228" y="630" type="line"/>
      <point x="365" y="370" type="line"/>
      <point x="377" y="337" type="line"/>
      <point x="381" y="345"/>
      <point x="386" y="362"/>
      <point x="389" y="370" type="qcurve"/>
      <point x="402" y="395"/>
      <point x="436" y="460"/>
      <point x="472" y="529"/>
      <point x="508" y="599"/>
      <point x="524" y="630" type="qcurve"/>
      <point x="477" y="630" type="line"/>
      <point x="477" y="725" type="line"/>
      <point x="738" y="725" type="line"/>
      <point x="738" y="630" type="line"/>
      <point x="646" y="630" type="line"/>
      <point x="431" y="239" type="line"/>
      <point x="431" y="95" type="line"/>
    </contour>
    <contour>
      <point x="226" y="830" type="qcurve"/>
      <point x="226" y="855"/>
      <point x="261" y="887"/>
      <point x="283" y="887" type="qcurve"/>
      <point x="303" y="887"/>
      <point x="338" y="855"/>
      <point x="338" y="830" type="qcurve"/>
      <point x="338" y="805"/>
      <point x="303" y="774"/>
      <point x="283" y="774" type="qcurve"/>
      <point x="261" y="774"/>
      <point x="226" y="805"/>
    </contour>
    <contour>
      <point x="416" y="830" type="qcurve"/>
      <point x="416" y="855"/>
      <point x="451" y="887"/>
      <point x="472" y="887" type="qcurve"/>
      <point x="492" y="887"/>
      <point x="527" y="855"/>
      <point x="527" y="830" type="qcurve"/>
      <point x="527" y="805"/>
      <point x="492" y="774"/>
      <point x="472" y="774" type="qcurve"/>
      <point x="451" y="774"/>
      <point x="416" y="805"/>
    </contour>
  </outline>
</glyph>
<glyph name="zdotaccent" format="1">
  <advance width="465"/>
  <unicode hex="017C"/>
  <outline>
    <contour>
      <point x="432" y="130" type="line"/>
      <point x="432" y="0" type="line"/>
      <point x="18" y="0" type="line"/>
      <point x="258" y="345" type="line"/>
      <point x="121" y="345" type="line"/>
      <point x="86" y="345"/>
      <point x="40" y="383"/>
      <point x="40" y="415" type="qcurve"/>
      <point x="40" y="458" type="line"/>
      <point x="117" y="458" type="line"/>
      <point x="117" y="445" type="line"/>
      <point x="117" y="428"/>
      <point x="133" y="418"/>
      <point x="151" y="418" type="qcurve"/>
      <point x="415" y="418" type="line"/>
      <point x="182" y="84" type="line"/>
      <point x="359" y="84" type="line"/>
      <point x="359" y="130" type="line"/>
    </contour>
    <contour>
      <point x="184" y="541" type="qcurve"/>
      <point x="184" y="565"/>
      <point x="219" y="597"/>
      <point x="239" y="597" type="qcurve"/>
      <point x="259" y="597"/>
      <point x="293" y="565"/>
      <point x="293" y="541" type="qcurve"/>
      <point x="293" y="517"/>
      <point x="259" y="486"/>
      <point x="239" y="486" type="qcurve"/>
      <point x="219" y="486"/>
      <point x="184" y="517"/>
    </contour>
  </outline>
</glyph>
<glyph name="zcaron" format="1">
  <advance width="465"/>
  <unicode hex="017E"/>
  <outline>
    <contour>
      <point x="432" y="130" type="line"/>
      <point x="432" y="0" type="line"/>
      <point x="18" y="0" type="line"/>
      <point x="258" y="345" type="line"/>
      <point x="121" y="345" type="line"/>
      <point x="86" y="345"/>
      <point x="40" y="383"/>
      <point x="40" y="415" type="qcurve"/>
      <point x="40" y="458" type="line"/>
      <point x="117" y="458" type="line"/>
      <point x="117" y="445" type="line"/>
      <point x="117" y="428"/>
      <point x="133" y="418"/>
      <point x="151" y="418" type="qcurve"/>
      <point x="415" y="418" type="line"/>
      <point x="182" y="84" type="line"/>
      <point x="359" y="84" type="line"/>
      <point x="359" y="130" type="line"/>
    </contour>
    <contour>
      <point x="240" y="486" type="qcurve"/>
      <point x="215" y="516"/>
      <point x="191" y="543" type="qcurve"/>
      <point x="171" y="566"/>
      <point x="129" y="615"/>
      <point x="118" y="630" type="qcurve"/>
      <point x="183" y="630" type="line"/>
      <point x="240" y="577" type="line"/>
      <point x="298" y="630" type="line"/>
      <point x="362" y="630" type="line"/>
      <point x="349" y="614"/>
      <point x="309" y="566"/>
      <point x="289" y="543" type="qcurve"/>
      <point x="266" y="516"/>
    </contour>
  </outline>
</glyph>
<glyph name="caron" format="1">
  <advance width="450"/>
  <unicode hex="02C7"/>
  <outline>
    <contour>
      <point x="235" y="486" type="qcurve"/>
      <point x="210" y="516"/>
      <point x="186" y="543" type="qcurve"/>
      <point x="166" y="566"/>
      <point x="124" y="615"/>
      <point x="113" y="630" type="qcurve"/>
      <point x="178" y="630" type="line"/>
      <point x="235" y="577" type="line"/>
      <point x="293" y="630" type="line"/>
      <point x="357" y="630" type="line"/>
      <point x="344" y="614"/>
      <point x="304" y="566"/>
      <point x="284" y="543" type="qcurve"/>
      <point x="261" y="516"/>
    </contour>
  </outline>
</glyph>
<glyph name="quoteleft" format="1">
  <advance width="184"/>
  <unicode hex="2018"/>
  <outline>
    <contour>
      <point x="141" y="598" type="qcurve"/>
      <point x="96" y="573" type="line"/>
      <point x="67" y="602"/>
      <point x="43" y="679"/>
      <point x="51" y="721" type="qcurve"/>
      <point x="107" y="714" type="line"/>
      <point x="100" y="679"/>
      <point x="120" y="618"/>
    </contour>
  </outline>
</glyph>
<glyph name="quotedblleft" format="1">
  <advance width="289"/>
  <unicode hex="201C"/>
  <outline>
    <contour>
      <point x="246" y="598" type="qcurve"/>
      <point x="201" y="573" type="line"/>
      <point x="172" y="602"/>
      <point x="148" y="679"/>
      <point x="156" y="721" type="qcurve"/>
      <point x="212" y="714" type="line"/>
      <point x="205" y="679"/>
      <point x="225" y="618"/>
    </contour>
    <contour>
      <point x="141" y="598" type="qcurve"/>
      <point x="129" y="592"/>
      <point x="107" y="579"/>
      <point x="96" y="573" type="qcurve"/>
      <point x="67" y="602"/>
      <point x="43" y="679"/>
      <point x="51" y="721" type="qcurve"/>
      <point x="107" y="714" type="line"/>
      <point x="100" y="679"/>
      <point x="120" y="618"/>
    </contour>
  </outline>
</glyph>
<glyph name="quotedblright" format="1">
  <advance width="289"/>
  <unicode hex="201D"/>
  <outline>
    <contour>
      <point x="193" y="573" type="qcurve"/>
      <point x="148" y="598" type="line"/>
      <point x="170" y="618"/>
      <point x="189" y="679"/>
      <point x="182" y="714" type="qcurve"/>
      <point x="238" y="721" type="line"/>
      <point x="246" y="679"/>
      <point x="222" y="602"/>
    </contour>
    <contour>
      <point x="88" y="573" type="qcurve"/>
      <point x="76" y="579"/>
      <point x="54" y="592"/>
      <point x="43" y="598" type="qcurve"/>
      <point x="64" y="618"/>
      <point x="83" y="679"/>
      <point x="76" y="714" type="qcurve"/>
      <point x="132" y="721" type="line"/>
      <point x="140" y="679"/>
      <point x="116" y="602"/>
    </contour>
  </outline>
</glyph>
<glyph name="quotedblbase" format="1">
  <advance width="303"/>
  <unicode hex="201E"/>
  <outline>
    <contour>
      <point x="82" y="-55" type="qcurve"/>
      <point x="71" y="-48"/>
      <point x="49" y="-36"/>
      <point x="37" y="-30" type="qcurve"/>
      <point x="59" y="-9"/>
      <point x="78" y="51"/>
      <point x="71" y="86" type="qcurve"/>
      <point x="127" y="93" type="line"/>
      <point x="135" y="51"/>
      <point x="111" y="-26"/>
    </contour>
    <contour>
      <point x="188" y="-55" type="qcurve"/>
      <point x="177" y="-48"/>
      <point x="154" y="-36"/>
      <point x="143" y="-30" type="qcurve"/>
      <point x="164" y="-9"/>
      <point x="183" y="51"/>
      <point x="176" y="86" type="qcurve"/>
      <point x="232" y="93" type="line"/>
      <point x="240" y="51"/>
      <point x="216" y="-26"/>
    </contour>
  </outline>
</glyph>
<glyph name="dagger" format="1">
  <advance width="351"/>
  <unicode hex="2020"/>
  <outline>
    <contour>
      <point x="130" y="2" type="line"/>
      <point x="130" y="380" type="line"/>
      <point x="56" y="380" type="line"/>
      <point x="56" y="469" type="line"/>
      <point x="130" y="469" type="line"/>
      <point x="130" y="615" type="line"/>
      <point x="222" y="615" type="line"/>
      <point x="222" y="469" type="line"/>
      <point x="295" y="469" type="line"/>
      <point x="295" y="380" type="line"/>
      <point x="222" y="380" type="line"/>
      <point x="222" y="2" type="line"/>
    </contour>
  </outline>
</glyph>
<glyph name="daggerdbl" format="1">
  <advance width="391"/>
  <unicode hex="2021"/>
  <outline>
    <contour>
      <point x="149" y="2" type="line"/>
      <point x="149" y="211" type="line"/>
      <point x="45" y="211" type="line"/>
      <point x="45" y="301" type="line"/>
      <point x="149" y="301" type="line"/>
      <point x="149" y="380" type="line"/>
      <point x="75" y="380" type="line"/>
      <point x="75" y="469" type="line"/>
      <point x="149" y="469" type="line"/>
      <point x="149" y="615" type="line"/>
      <point x="241" y="615" type="line"/>
      <point x="241" y="469" type="line"/>
      <point x="314" y="469" type="line"/>
      <point x="314" y="380" type="line"/>
      <point x="241" y="380" type="line"/>
      <point x="241" y="301" type="line"/>
      <point x="346" y="301" type="line"/>
      <point x="346" y="211" type="line"/>
      <point x="241" y="211" type="line"/>
      <point x="241" y="2" type="line"/>
    </contour>
  </outline>
</glyph>
<glyph name="guilsinglright" format="1">
  <advance width="282"/>
  <unicode hex="203A"/>
  <outline>
    <contour>
      <point x="69" y="155" type="line"/>
      <point x="74" y="160"/>
      <point x="94" y="185"/>
      <point x="115" y="212"/>
      <point x="135" y="237"/>
      <point x="140" y="242" type="qcurve"/>
      <point x="135" y="248"/>
      <point x="115" y="272"/>
      <point x="94" y="299"/>
      <point x="74" y="324"/>
      <point x="69" y="329" type="qcurve"/>
      <point x="69" y="434" type="line"/>
      <point x="73" y="430"/>
      <point x="100" y="400"/>
      <point x="135" y="361"/>
      <point x="176" y="315"/>
      <point x="211" y="276"/>
      <point x="238" y="246"/>
      <point x="242" y="242" type="qcurve"/>
      <point x="69" y="50" type="line"/>
    </contour>
  </outline>
</glyph>
<glyph name="Euro" format="1">
  <advance width="541"/>
  <unicode hex="20AC"/>
  <outline>
    <contour>
      <point x="39" y="406" type="line"/>
      <point x="108" y="406" type="line"/>
      <point x="117" y="469"/>
      <point x="166" y="566"/>
      <point x="236" y="633"/>
      <point x="326" y="667"/>
      <point x="377" y="667" type="qcurve"/>
      <point x="414" y="667"/>
      <point x="475" y="650"/>
      <point x="497" y="637" type="qcurve"/>
      <point x="456" y="556" type="line"/>
      <point x="439" y="567"/>
      <point x="400" y="578"/>
      <point x="374" y="578" type="qcurve"/>
      <point x="333" y="578"/>
      <point x="272" y="552"/>
      <point x="230" y="506"/>
      <point x="204" y="443"/>
      <point x="199" y="406" type="qcurve"/>
      <point x="409" y="406" type="line"/>
      <point x="409" y="357" type="line"/>
      <point x="196" y="357" type="line"/>
      <point x="196" y="350" type="line"/>
      <point x="196" y="336"/>
      <point x="197" y="310"/>
      <point x="198" y="298" type="qcurve"/>
      <point x="409" y="298" type="line"/>
      <point x="409" y="250" type="line"/>
      <point x="206" y="250" type="line"/>
      <point x="216" y="204"/>
      <point x="254" y="140"/>
      <point x="300" y="99"/>
      <point x="350" y="81"/>
      <point x="374" y="81" type="qcurve"/>
      <point x="414" y="81"/>
      <point x="452" y="106" type="qcurve"/>
      <point x="497" y="22" type="line"/>
      <point x="441" y="-8"/>
      <point x="374" y="-8" type="qcurve"/>
      <point x="325" y="-8"/>
      <point x="238" y="26"/>
      <point x="168" y="91"/>
      <point x="119" y="187"/>
      <point x="109" y="250" type="qcurve"/>
      <point x="40" y="250" type="line"/>
      <point x="40" y="298" type="line"/>
      <point x="104" y="298" type="line"/>
      <point x="103" y="306"/>
      <point x="103" y="324"/>
      <point x="103" y="333" type="qcurve"/>
      <point x="103" y="339"/>
      <point x="103" y="351"/>
      <point x="104" y="357" type="qcurve"/>
      <point x="39" y="357" type="line"/>
    </contour>
  </outline>
</glyph>
<glyph name="trademark" format="1">
  <advance width="587"/>
  <unicode hex="2122"/>
  <outline>
    <contour>
      <point x="254" y="768" type="line"/>
      <point x="257" y="763"/>
      <point x="278" y="735"/>
      <point x="304" y="698"/>
      <point x="334" y="656"/>
      <point x="360" y="620"/>
      <point x="380" y="592"/>
      <point x="383" y="588" type="qcurve"/>
      <point x="513" y="768" type="line"/>
      <point x="513" y="498" type="line"/>
      <point x="472" y="498" type="line"/>
      <point x="472" y="644" type="line"/>
      <point x="472" y="647"/>
      <point x="473" y="653"/>
      <point x="473" y="655" type="qcurve"/>
      <point x="383" y="525" type="line"/>
      <point x="380" y="530"/>
      <point x="351" y="569"/>
      <point x="320" y="614"/>
      <point x="293" y="652"/>
      <point x="292" y="655" type="qcurve"/>
      <point x="292" y="653"/>
      <point x="293" y="647"/>
      <point x="293" y="644" type="qcurve"/>
      <point x="293" y="498" type="line"/>
      <point x="254" y="498" type="line"/>
    </contour>
    <contour>
      <point x="208" y="757" type="line"/>
      <point x="208" y="720" type="line"/>
      <point x="142" y="720" type="line"/>
      <point x="142" y="498" type="line"/>
      <point x="104" y="498" type="line"/>
      <point x="104" y="720" type="line"/>
      <point x="40" y="720" type="line"/>
      <point x="40" y="757" type="line"/>
    </contour>
  </outline>
</glyph>
<glyph name="Omega" format="1">
  <advance width="674"/>
  <unicode hex="2126"/>
  <outline>
    <contour>
      <point x="58" y="89" type="line"/>
      <point x="180" y="89" type="line"/>
      <point x="157" y="103"/>
      <point x="115" y="143"/>
      <point x="83" y="200"/>
      <point x="65" y="275"/>
      <point x="65" y="325" type="qcurve"/>
      <point x="65" y="397"/>
      <point x="107" y="505"/>
      <point x="180" y="576"/>
      <point x="278" y="610"/>
      <point x="335" y="610" type="qcurve"/>
      <point x="406" y="610"/>
      <point x="511" y="563"/>
      <point x="580" y="481"/>
      <point x="612" y="371"/>
      <point x="609" y="308" type="qcurve"/>
      <point x="607" y="264"/>
      <point x="587" y="195"/>
      <point x="558" y="142"/>
      <point x="520" y="103"/>
      <point x="500" y="89" type="qcurve"/>
      <point x="615" y="89" type="line"/>
      <point x="615" y="0" type="line"/>
      <point x="397" y="0" type="line"/>
      <point x="397" y="89" type="line"/>
      <point x="452" y="113"/>
      <point x="516" y="229"/>
      <point x="516" y="306" type="qcurve"/>
      <point x="516" y="345"/>
      <point x="499" y="422"/>
      <point x="457" y="483"/>
      <point x="389" y="521"/>
      <point x="339" y="521" type="qcurve"/>
      <point x="287" y="521"/>
      <point x="218" y="481"/>
      <point x="176" y="419"/>
      <point x="158" y="344"/>
      <point x="158" y="311" type="qcurve"/>
      <point x="157" y="270"/>
      <point x="177" y="199"/>
      <point x="213" y="143"/>
      <point x="260" y="101"/>
      <point x="287" y="89" type="qcurve"/>
      <point x="287" y="0" type="line"/>
      <point x="58" y="0" type="line"/>
    </contour>
  </outline>
</glyph>
<glyph name="minus" format="1">
  <advance width="489"/>
  <unicode hex="2212"/>
  <outline>
    <contour>
      <point x="427" y="161" type="line"/>
      <point x="62" y="161" type="line"/>
      <point x="62" y="251" type="line"/>
      <point x="427" y="251" type="line"/>
    </contour>
  </outline>
</glyph>
<glyph name="infinity" format="1">
  <advance width="513"/>
  <unicode hex="221E"/>
  <outline>
    <contour>
      <point x="353" y="216" type="qcurve"/>
      <point x="325" y="216"/>
      <point x="274" y="234"/>
      <point x="257" y="251" type="qcurve"/>
      <point x="239" y="234"/>
      <point x="187" y="216"/>
      <point x="160" y="216" type="qcurve"/>
      <point x="134" y="216"/>
      <point x="96" y="233"/>
      <point x="71" y="260"/>
      <point x="59" y="293"/>
      <point x="59" y="308" type="qcurve"/>
      <point x="59" y="323"/>
      <point x="71" y="355"/>
      <point x="96" y="382"/>
      <point x="134" y="399"/>
      <point x="160" y="399" type="qcurve"/>
      <point x="187" y="399"/>
      <point x="239" y="380"/>
      <point x="257" y="363" type="qcurve"/>
      <point x="274" y="380"/>
      <point x="326" y="399"/>
      <point x="353" y="399" type="qcurve"/>
      <point x="379" y="399"/>
      <point x="417" y="382"/>
      <point x="441" y="355"/>
      <point x="453" y="323"/>
      <point x="453" y="308" type="qcurve"/>
      <point x="453" y="293"/>
      <point x="441" y="260"/>
      <point x="417" y="233"/>
      <point x="379" y="216"/>
    </contour>
    <contour>
      <point x="230" y="306" type="qcurve"/>
      <point x="230" y="323"/>
      <point x="187" y="344"/>
      <point x="161" y="344" type="qcurve"/>
      <point x="137" y="344"/>
      <point x="114" y="324"/>
      <point x="114" y="307" type="qcurve"/>
      <point x="114" y="293"/>
      <point x="134" y="270"/>
      <point x="161" y="270" type="qcurve"/>
      <point x="186" y="270"/>
      <point x="230" y="290"/>
    </contour>
    <contour>
      <point x="353" y="344" type="qcurve"/>
      <point x="327" y="344"/>
      <point x="285" y="324"/>
      <point x="284" y="307" type="qcurve"/>
      <point x="284" y="304" type="line"/>
      <point x="285" y="296"/>
      <point x="298" y="284"/>
      <point x="317" y="275"/>
      <point x="341" y="270"/>
      <point x="353" y="270" type="qcurve"/>
      <point x="379" y="270"/>
      <point x="399" y="293"/>
      <point x="399" y="307" type="qcurve"/>
      <point x="399" y="324"/>
      <point x="377" y="344"/>
    </contour>
  </outline>
</glyph>
<glyph name="integral" format="1">
  <advance width="340"/>
  <unicode hex="222B"/>
  <outline>
    <contour>
      <point x="123" y="637" type="line"/>
      <point x="123" y="684"/>
      <point x="143" y="733"/>
      <point x="176" y="754"/>
      <point x="221" y="756"/>
      <point x="246" y="756" type="qcurve"/>
      <point x="313" y="756" type="line"/>
      <point x="313" y="667" type="line"/>
      <point x="270" y="667" type="line"/>
      <point x="254" y="667"/>
      <point x="233" y="660"/>
      <point x="221" y="637"/>
      <point x="216" y="597"/>
      <point x="216" y="564" type="qcurve"/>
      <point x="216" y="-35" type="line"/>
      <point x="216" y="-81"/>
      <point x="196" y="-129"/>
      <point x="161" y="-150"/>
      <point x="117" y="-152"/>
      <point x="93" y="-152" type="qcurve"/>
      <point x="27" y="-152" type="line"/>
      <point x="27" y="-62" type="line"/>
      <point x="70" y="-62" type="line"/>
      <point x="85" y="-62"/>
      <point x="106" y="-54"/>
      <point x="118" y="-32"/>
      <point x="123" y="9"/>
      <point x="123" y="42" type="qcurve"/>
    </contour>
  </outline>
</glyph>
<glyph name="notequal" format="1">
  <advance width="671"/>
  <unicode hex="2260"/>
  <outline>
    <contour>
      <point x="591" y="396" type="line"/>
      <point x="591" y="306" type="line"/>
      <point x="405" y="306" type="line"/>
      <point x="315" y="199" type="line"/>
      <point x="591" y="199" type="line"/>
      <point x="591" y="109" type="line"/>
      <point x="238" y="109" type="line"/>
      <point x="209" y="74"/>
      <point x="154" y="11"/>
      <point x="131" y="-16" type="qcurve"/>
      <point x="78" y="30" type="line"/>
      <point x="145" y="109" type="line"/>
      <point x="78" y="109" type="line"/>
      <point x="78" y="199" type="line"/>
      <point x="223" y="199" type="line"/>
      <point x="314" y="306" type="line"/>
      <point x="78" y="306" type="line"/>
      <point x="78" y="396" type="line"/>
      <point x="391" y="396" type="line"/>
      <point x="517" y="544" type="line"/>
      <point x="569" y="497" type="line"/>
      <point x="482" y="396" type="line"/>
    </contour>
  </outline>
</glyph>
